<?xml version="1.0" encoding="UTF-8"?>
<svg id="Capa_1" data-name="Capa 1" xmlns="http://www.w3.org/2000/svg" viewBox="0 0 1221 632.29">
  <defs>
    <style>
      .cls-1 {
        fill: #b2cb05;
      }

      .cls-2 {
        fill: #6c69ad;
      }
    </style>
  </defs>
  <g>
    <g>
      <path class="cls-2" d="M145.13,174.5c1.11,4.71,1.38,5.54,2.49,9.97,1.11,4.15,2.49,7.48,3.32,11.08.28,1.11.28,1.94.28,2.77,0,2.22-1.38,3.32-3.32,3.88-3.05,1.11-5.54,1.38-8.03,1.38-2.77,0-5.54-.28-8.86-.28h-1.94c-8.59.55-14.96,1.11-22.99,1.11-.83,0-1.66-.28-2.22-.55-.83-.55-1.38-2.22-1.66-3.88-.28-.55-.28-1.11-.55-1.94,0-.28-.28-.83-.28-1.11-4.71-18.28-4.98-26.04-8.31-42.65-3.32-16.62-.55-5.26-3.32-15.24-.28-.83-.83-1.38-1.38-1.94-1.11,0-4.98,0-6.37-.28-2.77,0-5.26-.28-8.31-.28h-2.77c-1.94,0-3.32-.28-5.26-.28-1.38,0-3.05.28-5.54.28-1.11,1.11-2.22.55-2.77,2.49-1.66,8.03-1.94,12.47-3.32,20.5-.83,6.37-1.38,10.8-2.22,16.07-.55,6.37-1.11,11.36-1.94,18-.28,1.66-.55,3.32-.83,4.99-.28,1.11-.83,2.22-1.38,3.05-.83.55-1.66,1.38-2.49,1.38-2.49.83-5.82,1.11-9.14,1.11s-7.2-.28-10.25-.28h-6.37c-2.49,0-5.26.28-8.31.28-4.43,0-8.59-.55-10.8-2.22-.28-.28-.28-.55-.28-.83,0-.83.28-1.66.28-2.22.28-1.11.28-2.22.55-3.32,1.11-5.26,2.22-9.42,2.77-13.57,0-.83.28-2.49.83-3.05,1.66-16.07,4.71-29.08,8.31-47.64,6.37-33.79,11.36-58.16,16.9-86.14,2.22-11.36,6.09-22.99,7.48-36.29.28-2.77,1.11-2.49,2.77-3.32h2.49c3.32-.83,5.82-1.11,9.42-1.94,1.66,0,3.6-.55,5.54-.83,1.38,0,15.79-.28,24.37-.28h5.54c5.26.55,10.25,1.66,15.23,2.22.83.28,1.66.55,2.22,1.38.83,1.38,1.66,2.77,1.94,4.15,1.94,7.2,3.05,14.41,4.71,21.61.83,4.98,1.94,10.25,3.32,14.96,4.98,14.68,6.65,28.53,10.25,44.59,1.66,7.76,3.05,16.07,4.71,23.82,2.22,11.08,5.82,19.39,8.58,31.85.83,4.71,1.66,8.31,3.05,13.85,1.38,5.26,2.77,8.86,3.88,13.57ZM81.99,100.27c0-.28.28-.28.28-.55,0-.55.28-.83.28-1.38,0-5.54-2.77-14.13-4.71-25.76-1.11-8.31-1.94-16.62-3.6-27.14-.28-1.11-.55-1.38-1.11-1.38s-.83.28-1.38.28c-.28,0-2.49.28-3.05,3.05-4.15,19.39-6.09,43.76-6.09,50.41v1.38c.28.28.28.55.28.83,0,1.38,3.6,1.66,6.37,1.66h3.05c3.05-.28,7.75-.83,7.75-.83.55-.28,1.94,0,1.94-.55Z"/>
      <path class="cls-2" d="M355.9,205.24h-3.88c-4.71,0-23.54-.28-30.74-.28-2.22,0-3.6-.55-4.43-2.22-1.11-3.32-3.32-13.3-4.71-16.9-3.88-8.86-6.65-18.56-10.52-27.42-.55-1.11-1.11-2.22-1.11-3.32-4.98-11.36-7.48-23.54-11.63-35.73-5.54-16.89-4.15-16.34-4.98-17.45h-.55c-.55,0-.83,2.77-.83,6.65s.28,8.58.28,11.63c-.28,14.12-.83,22.16-1.11,36.28v18.56c0,4.98-.28,10.25-.28,15.51-.28,3.88.55,14.4-3.32,14.4h-.83c-4.71,0-8.03-.28-10.8-.28-3.88,0-6.65.28-9.42.28-3.05,0-6.37-.28-11.91-.55-.55,0-1.11-.28-1.94-.28h-1.11c-2.22,0-4.71-1.94-4.71-4.15v-28.25c0-54.84.55-90.57,1.11-144.3v-8.86c0-2.77,0-5.26.55-8.03v-4.15c0-1.94.55-2.77,2.22-3.6l4.43-.83c3.32-.28,7.2-.55,10.52-.55,7.2,0,13.02,1.94,19.39,1.94,2.77,0,4.15,1.94,5.26,4.43,20.22,49.03,29.08,77.55,48.75,126.86.28.28.28.55.28.55.28,0,.28-.28.28-.55,0-.83-.55-3.32-.55-5.26,0-26.31-.55-49.3-.55-75.89,0-9.69-.28-19.11-.28-28.53,0-5.54.55-11.36.55-16.9,0-1.66.83-3.6,2.77-3.6,7.48,0,11.91.28,14.12.28h17.17c1.94.28,2.77,1.66,2.77,3.32v192.5c0,4.16-5.54,4.71-10.25,4.71Z"/>
      <path class="cls-2" d="M501.57,204.97h-4.16c-9.14,0-23.82.28-36.01.28-4.15,0-5.26-10.52-5.26-22.16,0-8.31.55-17.45.55-22.71v-2.77c-.28-2.49-.28-4.16-.28-6.09v-32.68c0-20.77.55-42.66.55-62.32v-5.26c0-6.09-.28-11.91-.28-18.01-.28-7.48-.28-14.96-.28-22.99v-3.88c.28-1.11.55-1.94.83-2.77.55-.55,1.38-1.11,1.94-1.11h2.22c4.15,0,8.03-.55,12.19-.83,13.29,0,25.48.28,38.22.28.55,0,.83,0,1.38.55,1.38,1.38,2.22,3.05,2.22,4.98v20.22c0,15.51,0,31.3-.55,45.98-.55,14.41-.83,24.93-.83,34.62,0,7.48.28,14.68.28,22.71s-.28,17.45-.55,29.36v29.64c0,.28.28,9.97.28,10.25,0,1.11-.55,2.22-1.38,3.05-1.11,1.11-6.65,1.66-11.08,1.66Z"/>
      <path class="cls-2" d="M733.39,196.66c0-7.48.28-14.68.28-22.16,0-19.11-.83-39.61-.83-58.72,0-3.88.28-8.03.28-12.46v-2.49c-3.32,8.59-7.48,20.22-8.31,23.27-6.92,21.61-9.97,24.65-16.9,46.26-1.11,3.88-6.09,17.17-10.8,17.17-1.11,0-1.94-.55-3.05-1.38-.55-.83-1.11-1.66-1.66-2.49-4.99-11.63-9.7-24.37-13.57-36.84-1.11-3.32-1.94-6.65-2.77-10.25-1.94-7.2-9.97-26.04-14.96-35.73,0,.83-.55,6.37-.55,7.2.28,5.54.28,10.25.28,14.68v26.04c0,10.25,1.11,19.66,1.11,29.36v4.43c0,3.05-.28,8.86-.28,11.91,0,1.66,0,3.32-.28,4.98,0,1.11-.55,2.22-1.94,2.49-10.8,2.22-36.56,2.49-51.52,2.49-2.22-.28-3.05-1.66-3.05-3.88v-.28c0-5.54-.83-12.74-.83-18.84,0-11.63.55-20.5.55-30.19v-6.92c0-10.52,0-19.39.28-30.74,0-11.63.28-19.39.28-30.47,0-24.65-1.11-48.75-1.11-72.57,0-2.49.28-5.26.83-7.2.55-1.66,1.66-1.66,2.77-1.66h2.22c1.94,0,4.43.28,6.65.28h12.19c3.88,0,20.5-1.11,23.54-1.11,5.26,0,15.23,19.94,18,25.76,3.6,7.48,15.51,34.9,18,42.93.28.83.28,1.94.55,2.77,1.38,4.43,3.05,9.14,4.71,13.57.83,3.05,1.94,5.82,3.32,8.31,1.11,0,1.38-.83,1.66-1.38,4.43-16.06,9.7-27.42,14.96-41.82,1.11-3.05,7.76-23.27,13.02-39.33,3.32-10.52,1.11-8.86,9.42-9.14h4.43c4.71,0,2.77.55,12.19.55,4.98,0,5.82,0,10.8.28,4.43,0,14.4,0,14.4,4.71v6.09c0,3.32.28,6.37.28,8.86,0,.55,0,1.38-.28,1.94v105.53c0,22.71-.28,45.42-.28,68.69,0,4.16-4.15,3.88-7.2,4.71-1.94.55-4.99.55-6.92.55h-.83c-4.98.28-11.08,1.11-16.62,1.11s-12.46-.28-12.46-6.37v-2.49Z"/>
      <path class="cls-2" d="M1011.73,174.5c1.11,4.71,1.38,5.54,2.49,9.97,1.11,4.15,2.49,7.48,3.32,11.08.28,1.11.28,1.94.28,2.77,0,2.22-1.38,3.32-3.33,3.88-3.05,1.11-5.54,1.38-8.03,1.38-2.77,0-5.54-.28-8.86-.28h-1.94c-8.59.55-14.96,1.11-22.99,1.11-.83,0-1.66-.28-2.22-.55-.83-.55-1.38-2.22-1.66-3.88-.28-.55-.28-1.11-.55-1.94,0-.28-.28-.83-.28-1.11-4.71-18.28-4.98-26.04-8.31-42.65-3.32-16.62-.55-5.26-3.32-15.24-.28-.83-.83-1.38-1.38-1.94-1.11,0-4.98,0-6.37-.28-2.77,0-5.26-.28-8.31-.28h-2.77c-1.94,0-3.32-.28-5.26-.28-1.38,0-3.05.28-5.54.28-1.11,1.11-2.22.55-2.77,2.49-1.66,8.03-1.94,12.47-3.32,20.5-.83,6.37-1.38,10.8-2.22,16.07-.55,6.37-1.11,11.36-1.94,18-.28,1.66-.55,3.32-.83,4.99-.28,1.11-.83,2.22-1.38,3.05-.83.55-1.66,1.38-2.49,1.38-2.49.83-5.82,1.11-9.14,1.11s-7.2-.28-10.25-.28h-6.37c-2.49,0-5.26.28-8.31.28-4.43,0-8.59-.55-10.8-2.22-.28-.28-.28-.55-.28-.83,0-.83.28-1.66.28-2.22.28-1.11.28-2.22.55-3.32,1.11-5.26,2.22-9.42,2.77-13.57,0-.83.28-2.49.83-3.05,1.66-16.07,4.71-29.08,8.31-47.64,6.37-33.79,11.36-58.16,16.9-86.14,2.22-11.36,6.09-22.99,7.48-36.29.28-2.77,1.11-2.49,2.77-3.32h2.49c3.32-.83,5.82-1.11,9.42-1.94,1.66,0,3.6-.55,5.54-.83,1.38,0,15.79-.28,24.37-.28h5.54c5.26.55,10.25,1.66,15.23,2.22.83.28,1.66.55,2.22,1.38.83,1.38,1.66,2.77,1.94,4.15,1.94,7.2,3.05,14.41,4.71,21.61.83,4.98,1.94,10.25,3.32,14.96,4.98,14.68,6.65,28.53,10.25,44.59,1.66,7.76,3.05,16.07,4.71,23.82,2.22,11.08,5.82,19.39,8.58,31.85.83,4.71,1.66,8.31,3.05,13.85,1.38,5.26,2.77,8.86,3.88,13.57ZM948.58,100.27c0-.28.28-.28.28-.55,0-.55.28-.83.28-1.38,0-5.54-2.77-14.13-4.71-25.76-1.11-8.31-1.94-16.62-3.6-27.14-.28-1.11-.55-1.38-1.11-1.38s-.83.28-1.38.28c-.28,0-2.49.28-3.05,3.05-4.15,19.39-6.09,43.76-6.09,50.41v1.38c.28.28.28.55.28.83,0,1.38,3.6,1.66,6.37,1.66h3.05c3.05-.28,7.75-.83,7.75-.83.55-.28,1.94,0,1.94-.55Z"/>
      <path class="cls-2" d="M1113.37,204.69h-1.38c-3.05-.28-5.26-1.11-7.75-2.22-1.67-.55-2.5-2.49-2.5-4.15v-4.15c0-4.43-.27-8.86-.27-13.02,0-2.22.27-4.15.27-6.65.83-51.8,1.67-81.15,2.22-132.95v-1.66c0-5.26-.28-9.42-.28-13.85,0-5.54.28-12.19.83-22.16.28-2.22.28-3.32,2.5-3.6,1.1,0,2.21-.28,3.05-.28s1.66.28,2.49.28c2.49.28,4.43.28,7.48.55,3.32.55,6.09.55,8.59.55h4.42c4.15,0,7.76.28,12.47,1.66,1.11.28,1.38,1.38,1.38,2.77v75.06c0,7.75-.83,12.46-.83,20.22,0,5.54-.83,11.91-.83,16.89,0,3.05.28,5.54,1.66,6.65,4.43,4.43,24.93,4.71,37.11,4.71h3.32c3.88,0,5.27,3.88,5.27,8.59,0,21.33.83,43.21.83,63.15-.28,1.38-.83,2.22-2.21,2.49-1.39.28-3.05.28-4.44.28-11.91,0-23.82.55-37.11.55h-6.93c-10.25,0-19.94.28-29.36.28Z"/>
    </g>
    <g>
      <path class="cls-2" d="M291.12,625.9h-28.22c-4.62,0-8.72-.51-13.34-.51-8.21,0-16.42.51-25.66.51-14.88,0-17.96-24.63-28.22-39-4.62-8.21-7.7-12.32-12.31-20.53-6.67-12.83-9.75-20.01-17.45-33.35-2.05-3.59-3.08-6.16-5.64-9.75-10.26-14.88-15.4-31.3-27.71-49.77-1.03-1.54-2.05-3.08-3.59-4.62-5.64,7.7-4.62,20.01-5.64,31.3v22.07c0,17.45-.51,26.68-.51,44.13v45.16c0,7.7-5.64,11.8-13.34,11.8h-1.54c-8.72-.51-15.91-.51-22.07-.51-21.04,0-32.84,2.05-63.11,2.05h-1.03c-4.11,0-6.16-2.05-6.16-5.64,0-21.55,1.03-47.72,1.03-72.86,0-37.46-1.03-71.84-1.03-109.81,0-11.8-.51-20.01-.51-29.25,0-15.4.51-32.33.51-48.75v-100.06c.51-4.62,12.31-7.18,16.42-7.7,8.72-1.03,16.93-3.08,25.66-3.08,5.64,0,42.08-.51,47.72-.51,34.89,0,70.3,2.56,104.68,2.56,11.8.51,30.28,2.56,45.16,9.75,13.85,6.68,22.58,17.96,30.79,30.28,10.78,15.4,20.01,30.79,20.01,56.45,0,7.18-.51,28.22-4.62,34.38-1.54,5.13-3.59,10.78-6.67,15.4-4.11,7.18-10.26,19.5-18.47,24.12-9.24,5.13-14.88,7.7-24.63,11.8-6.16,2.56-35.41,8.73-37.46,8.73,7.18,10.78,13.34,20.52,20.01,30.27,8.21,11.29,17.45,35.92,27.71,54.4,13.34,23.6,17.45,40.53,46.18,90.31.51.51.51,1.03.51,2.05,0,7.7-10.78,8.21-17.45,8.21ZM141.28,324.69h-3.08c-6.67,0-3.08,0-13.86,2.05-.51,4.11-.51,8.21-.51,12.32,0,9.23,1.03,27.71,1.54,37.45,1.03,0,2.05.51,3.08.51,2.05,0,5.13.51,9.24.51,18.47,0,35.92-1.03,44.13-6.67,3.59-3.08,7.7-5.13,8.72-10.26,1.03-2.06,1.03-13.35,1.03-15.4,0-18.99-34.38-20.52-50.29-20.52Z"/>
      <path class="cls-2" d="M592.85,569.45c2.05,8.73,2.56,10.27,4.62,18.47,2.05,7.7,4.62,13.86,6.16,20.53.51,2.05.51,3.59.51,5.13,0,4.11-2.57,6.16-6.16,7.18-5.64,2.06-10.26,2.57-14.88,2.57-5.13,0-10.26-.51-16.42-.51h-3.59c-15.91,1.03-27.71,2.05-42.59,2.05-1.54,0-3.08-.51-4.1-1.02-1.54-1.03-2.57-4.11-3.08-7.18-.51-1.03-.51-2.06-1.03-3.59,0-.51-.51-1.54-.51-2.06-8.72-33.87-9.24-48.24-15.39-79.02-6.16-30.79-1.03-9.75-6.16-28.23-.51-1.54-1.54-2.56-2.57-3.59-2.05,0-9.24,0-11.8-.51-5.13,0-9.75-.51-15.4-.51h-5.13c-3.59,0-6.16-.51-9.75-.51-2.56,0-5.64.51-10.26.51-2.05,2.05-4.11,1.02-5.13,4.61-3.08,14.88-3.59,23.09-6.16,37.97-1.54,11.8-2.56,20.01-4.11,29.76-1.03,11.8-2.05,21.04-3.59,33.35-.51,3.08-1.03,6.16-1.54,9.23-.51,2.06-1.54,4.11-2.56,5.65-1.54,1.02-3.08,2.56-4.62,2.56-4.62,1.54-10.78,2.05-16.93,2.05s-13.34-.51-18.99-.51h-11.8c-4.62,0-9.75.51-15.39.51-8.21,0-15.91-1.02-20.01-4.1-.51-.51-.51-1.03-.51-1.54,0-1.54.51-3.08.51-4.11.51-2.05.51-4.11,1.03-6.16,2.05-9.75,4.11-17.45,5.13-25.14,0-1.54.51-4.62,1.54-5.65,3.08-29.76,8.72-53.88,15.39-88.26,11.8-62.6,21.04-107.76,31.3-159.58,4.11-21.04,11.29-42.59,13.85-67.22.51-5.13,2.05-4.62,5.13-6.16h4.62c6.16-1.54,10.78-2.05,17.45-3.59,3.08,0,6.67-1.02,10.26-1.54,2.56,0,29.25-.51,45.16-.51h10.26c9.75,1.03,18.99,3.08,28.22,4.11,1.54.51,3.08,1.02,4.11,2.56,1.54,2.56,3.08,5.13,3.59,7.7,3.59,13.34,5.64,26.68,8.72,40.02,1.54,9.23,3.59,18.99,6.16,27.71,9.24,27.2,12.31,52.86,18.98,82.62,3.08,14.37,5.64,29.76,8.72,44.13,4.11,20.52,10.78,35.92,15.91,59.01,1.54,8.73,3.08,15.4,5.64,25.66,2.56,9.75,5.13,16.42,7.18,25.14ZM475.86,431.93c0-.51.51-.51.51-1.03,0-1.02.51-1.54.51-2.56,0-10.26-5.13-26.17-8.72-47.72-2.05-15.4-3.59-30.78-6.67-50.29-.51-2.05-1.03-2.56-2.05-2.56s-1.54.51-2.57.51c-.51,0-4.62.51-5.64,5.64-7.69,35.92-11.29,81.08-11.29,93.39v2.57c.51.51.51,1.02.51,1.54,0,2.57,6.67,3.08,11.8,3.08h5.64c5.64-.51,14.37-1.54,14.37-1.54,1.03-.51,3.59,0,3.59-1.03Z"/>
      <path class="cls-2" d="M896.64,625.9h-28.22c-4.62,0-8.72-.51-13.34-.51-8.21,0-16.42.51-25.66.51-14.88,0-17.96-24.63-28.22-39-4.62-8.21-7.7-12.32-12.31-20.53-6.67-12.83-9.75-20.01-17.45-33.35-2.05-3.59-3.08-6.16-5.64-9.75-10.26-14.88-15.4-31.3-27.71-49.77-1.03-1.54-2.05-3.08-3.59-4.62-5.64,7.7-4.62,20.01-5.64,31.3v22.07c0,17.45-.51,26.68-.51,44.13v45.16c0,7.7-5.64,11.8-13.34,11.8h-1.54c-8.72-.51-15.91-.51-22.07-.51-21.04,0-32.84,2.05-63.11,2.05h-1.03c-4.11,0-6.16-2.05-6.16-5.64,0-21.55,1.03-47.72,1.03-72.86,0-37.46-1.03-71.84-1.03-109.81,0-11.8-.51-20.01-.51-29.25,0-15.4.51-32.33.51-48.75v-100.06c.51-4.62,12.31-7.18,16.42-7.7,8.72-1.03,16.93-3.08,25.66-3.08,5.64,0,42.08-.51,47.72-.51,34.89,0,70.3,2.56,104.68,2.56,11.8.51,30.28,2.56,45.16,9.75,13.85,6.68,22.58,17.96,30.79,30.28,10.78,15.4,20.01,30.79,20.01,56.45,0,7.18-.51,28.22-4.62,34.38-1.54,5.13-3.59,10.78-6.67,15.4-4.11,7.18-10.26,19.5-18.47,24.12-9.24,5.13-14.88,7.7-24.63,11.8-6.16,2.56-35.41,8.73-37.46,8.73,7.18,10.78,13.34,20.52,20.01,30.27,8.21,11.29,17.45,35.92,27.71,54.4,13.34,23.6,17.45,40.53,46.18,90.31.51.51.51,1.03.51,2.05,0,7.7-10.78,8.21-17.45,8.21ZM746.8,324.69h-3.08c-6.67,0-3.08,0-13.86,2.05-.51,4.11-.51,8.21-.51,12.32,0,9.23,1.03,27.71,1.54,37.45,1.03,0,2.05.51,3.08.51,2.05,0,5.13.51,9.24.51,18.47,0,35.92-1.03,44.13-6.67,3.59-3.08,7.7-5.13,8.72-10.26,1.03-2.06,1.03-13.35,1.03-15.4,0-18.99-34.38-20.52-50.29-20.52Z"/>
      <path class="cls-2" d="M1059.32,631.03c-4.61.51-9.23.51-13.34.51-6.16-.51-12.32-.51-18.47-.51-73.89,0-96.47-53.37-102.63-123.16-1.03-7.7-1.54-15.9-1.54-23.6v-14.88c0-50.29,6.16-96.99,16.42-137.01,3.08-12.31,8.72-24.63,14.88-35.92,18.47-32.84,42.07-48.74,90.31-52.34,5.64-.51,11.29-1.03,16.94-1.03,42.07,0,81.58,17.96,94.92,45.16,10.27,22.57,16.42,42.59,18.99,72.86,0,3.08.51,6.16.51,9.23,1.54,22.07,2.05,47.21,2.05,71.84v7.7c0,57.98-.51,111.87-27.71,143.68-19.5,23.6-50.8,37.46-91.34,37.46ZM1063.94,332.9c-2.57-2.56-5.64-4.11-9.75-4.11h-.51c-8.21,1.03-17.45,8.21-23.09,26.68-2.05,7.18-3.59,14.88-4.11,22.58-2.05,11.29-1.03,24.12-2.56,35.92-.51,12.32-1.03,8.73-1.03,16.93v5.65c0,5.64.51,10.26.51,15.91.51,17.45.51,17.96,2.57,34.38,1.02,12.83,10.26,52.86,26.17,52.86,25.15,0,27.71-34.38,28.74-57.48,1.54-17.96,2.56-16.42,2.56-37.97v-34.38c-.52-14.37-5.65-63.11-19.5-76.97Z"/>
    </g>
  </g>
  <g>
    <g>
      <path class="cls-1" d="M172.72,175.24c1.11,4.71,1.38,5.54,2.49,9.97,1.11,4.15,2.49,7.48,3.32,11.08.28,1.11.28,1.94.28,2.77,0,2.22-1.38,3.32-3.32,3.88-3.05,1.11-5.54,1.38-8.03,1.38-2.77,0-5.54-.28-8.86-.28h-1.94c-8.59.55-14.96,1.11-22.99,1.11-.83,0-1.66-.28-2.22-.55-.83-.55-1.38-2.22-1.66-3.88-.28-.55-.28-1.11-.55-1.94,0-.28-.28-.83-.28-1.11-4.71-18.28-4.98-26.04-8.31-42.65-3.32-16.62-.55-5.26-3.32-15.24-.28-.83-.83-1.38-1.38-1.94-1.11,0-4.98,0-6.37-.28-2.77,0-5.26-.28-8.31-.28h-2.77c-1.94,0-3.32-.28-5.26-.28-1.38,0-3.05.28-5.54.28-1.11,1.11-2.22.55-2.77,2.49-1.66,8.03-1.94,12.47-3.32,20.5-.83,6.37-1.38,10.8-2.22,16.07-.55,6.37-1.11,11.36-1.94,18-.28,1.66-.55,3.32-.83,4.99-.28,1.11-.83,2.22-1.38,3.05-.83.55-1.66,1.38-2.49,1.38-2.49.83-5.82,1.11-9.14,1.11s-7.2-.28-10.25-.28h-6.37c-2.49,0-5.26.28-8.31.28-4.43,0-8.59-.55-10.8-2.22-.28-.28-.28-.55-.28-.83,0-.83.28-1.66.28-2.22.28-1.11.28-2.22.55-3.32,1.11-5.26,2.22-9.42,2.77-13.57,0-.83.28-2.49.83-3.05,1.66-16.07,4.71-29.08,8.31-47.64,6.37-33.79,11.36-58.16,16.9-86.14,2.22-11.36,6.09-22.99,7.48-36.29.28-2.77,1.11-2.49,2.77-3.32h2.49c3.32-.83,5.82-1.11,9.42-1.94,1.66,0,3.6-.55,5.54-.83,1.38,0,15.79-.28,24.37-.28h5.54c5.26.55,10.25,1.66,15.23,2.22.83.28,1.66.55,2.22,1.38.83,1.38,1.66,2.77,1.94,4.15,1.94,7.2,3.05,14.41,4.71,21.61.83,4.98,1.94,10.25,3.32,14.96,4.98,14.68,6.65,28.53,10.25,44.59,1.66,7.76,3.05,16.07,4.71,23.82,2.22,11.08,5.82,19.39,8.58,31.85.83,4.71,1.66,8.31,3.05,13.85,1.38,5.26,2.77,8.86,3.88,13.57ZM109.57,101.01c0-.28.28-.28.28-.55,0-.55.28-.83.28-1.38,0-5.54-2.77-14.13-4.71-25.76-1.11-8.31-1.94-16.62-3.6-27.14-.28-1.11-.55-1.38-1.11-1.38s-.83.28-1.38.28c-.28,0-2.49.28-3.05,3.05-4.15,19.39-6.09,43.76-6.09,50.41v1.38c.28.28.28.55.28.83,0,1.38,3.6,1.66,6.37,1.66h3.05c3.05-.28,7.75-.83,7.75-.83.55-.28,1.94,0,1.94-.55Z"/>
      <path class="cls-1" d="M383.48,205.99h-3.88c-4.71,0-23.54-.28-30.74-.28-2.22,0-3.6-.55-4.43-2.22-1.11-3.32-3.32-13.3-4.71-16.9-3.88-8.86-6.65-18.56-10.52-27.42-.55-1.11-1.11-2.22-1.11-3.32-4.98-11.36-7.48-23.54-11.63-35.73-5.54-16.89-4.15-16.34-4.98-17.45h-.55c-.55,0-.83,2.77-.83,6.65s.28,8.58.28,11.63c-.28,14.12-.83,22.16-1.11,36.28v18.56c0,4.98-.28,10.25-.28,15.51-.28,3.88.55,14.4-3.32,14.4h-.83c-4.71,0-8.03-.28-10.8-.28-3.88,0-6.65.28-9.42.28-3.05,0-6.37-.28-11.91-.55-.55,0-1.11-.28-1.94-.28h-1.11c-2.22,0-4.71-1.94-4.71-4.15v-28.25c0-54.84.55-90.57,1.11-144.3v-8.86c0-2.77,0-5.26.55-8.03v-4.15c0-1.94.55-2.77,2.22-3.6l4.43-.83c3.32-.28,7.2-.55,10.52-.55,7.2,0,13.02,1.94,19.39,1.94,2.77,0,4.15,1.94,5.26,4.43,20.22,49.03,29.08,77.55,48.75,126.86.28.28.28.55.28.55.28,0,.28-.28.28-.55,0-.83-.55-3.32-.55-5.26,0-26.31-.55-49.3-.55-75.89,0-9.69-.28-19.11-.28-28.53,0-5.54.55-11.36.55-16.9,0-1.66.83-3.6,2.77-3.6,7.48,0,11.91.28,14.12.28h17.17c1.94.28,2.77,1.66,2.77,3.32v192.5c0,4.16-5.54,4.71-10.25,4.71Z"/>
      <path class="cls-1" d="M529.16,205.71h-4.16c-9.14,0-23.82.28-36.01.28-4.15,0-5.26-10.52-5.26-22.16,0-8.31.55-17.45.55-22.71v-2.77c-.28-2.49-.28-4.16-.28-6.09v-32.68c0-20.77.55-42.66.55-62.32v-5.26c0-6.09-.28-11.91-.28-18.01-.28-7.48-.28-14.96-.28-22.99v-3.88c.28-1.11.55-1.94.83-2.77.55-.55,1.38-1.11,1.94-1.11h2.22c4.15,0,8.03-.55,12.19-.83,13.29,0,25.48.28,38.22.28.55,0,.83,0,1.38.55,1.38,1.38,2.22,3.05,2.22,4.98v20.22c0,15.51,0,31.3-.55,45.98-.55,14.41-.83,24.93-.83,34.62,0,7.48.28,14.68.28,22.71s-.28,17.45-.55,29.36v29.64c0,.28.28,9.97.28,10.25,0,1.11-.55,2.22-1.38,3.05-1.11,1.11-6.65,1.66-11.08,1.66Z"/>
      <path class="cls-1" d="M760.98,197.4c0-7.48.28-14.68.28-22.16,0-19.11-.83-39.61-.83-58.72,0-3.88.28-8.03.28-12.46v-2.49c-3.32,8.59-7.48,20.22-8.31,23.27-6.92,21.61-9.97,24.65-16.9,46.26-1.11,3.88-6.09,17.17-10.8,17.17-1.11,0-1.94-.55-3.05-1.38-.55-.83-1.11-1.66-1.66-2.49-4.99-11.63-9.7-24.37-13.57-36.84-1.11-3.32-1.94-6.65-2.77-10.25-1.94-7.2-9.97-26.04-14.96-35.73,0,.83-.55,6.37-.55,7.2.28,5.54.28,10.25.28,14.68v26.04c0,10.25,1.11,19.66,1.11,29.36v4.43c0,3.05-.28,8.86-.28,11.91,0,1.66,0,3.32-.28,4.98,0,1.11-.55,2.22-1.94,2.49-10.8,2.22-36.56,2.49-51.52,2.49-2.22-.28-3.05-1.66-3.05-3.88v-.28c0-5.54-.83-12.74-.83-18.84,0-11.63.55-20.5.55-30.19v-6.92c0-10.52,0-19.39.28-30.74,0-11.63.28-19.39.28-30.47,0-24.65-1.11-48.75-1.11-72.57,0-2.49.28-5.26.83-7.2.55-1.66,1.66-1.66,2.77-1.66h2.22c1.94,0,4.43.28,6.65.28h12.19c3.88,0,20.5-1.11,23.54-1.11,5.26,0,15.23,19.94,18,25.76,3.6,7.48,15.51,34.9,18,42.93.28.83.28,1.94.55,2.77,1.38,4.43,3.05,9.14,4.71,13.57.83,3.05,1.94,5.82,3.32,8.31,1.11,0,1.38-.83,1.66-1.38,4.43-16.06,9.7-27.42,14.96-41.82,1.11-3.05,7.76-23.27,13.02-39.33,3.32-10.52,1.11-8.86,9.42-9.14h4.43c4.71,0,2.77.55,12.19.55,4.98,0,5.82,0,10.8.28,4.43,0,14.4,0,14.4,4.71v6.09c0,3.32.28,6.37.28,8.86,0,.55,0,1.38-.28,1.94v105.53c0,22.71-.28,45.42-.28,68.69,0,4.16-4.15,3.88-7.2,4.71-1.94.55-4.99.55-6.92.55h-.83c-4.98.28-11.08,1.11-16.62,1.11s-12.46-.28-12.46-6.37v-2.49Z"/>
      <path class="cls-1" d="M1039.32,175.24c1.11,4.71,1.38,5.54,2.49,9.97,1.11,4.15,2.49,7.48,3.32,11.08.28,1.11.28,1.94.28,2.77,0,2.22-1.38,3.32-3.33,3.88-3.05,1.11-5.54,1.38-8.03,1.38-2.77,0-5.54-.28-8.86-.28h-1.94c-8.59.55-14.96,1.11-22.99,1.11-.83,0-1.66-.28-2.22-.55-.83-.55-1.38-2.22-1.66-3.88-.28-.55-.28-1.11-.55-1.94,0-.28-.28-.83-.28-1.11-4.71-18.28-4.98-26.04-8.31-42.65-3.32-16.62-.55-5.26-3.32-15.24-.28-.83-.83-1.38-1.38-1.94-1.11,0-4.98,0-6.37-.28-2.77,0-5.26-.28-8.31-.28h-2.77c-1.94,0-3.32-.28-5.26-.28-1.38,0-3.05.28-5.54.28-1.11,1.11-2.22.55-2.77,2.49-1.66,8.03-1.94,12.47-3.32,20.5-.83,6.37-1.38,10.8-2.22,16.07-.55,6.37-1.11,11.36-1.94,18-.28,1.66-.55,3.32-.83,4.99-.28,1.11-.83,2.22-1.38,3.05-.83.55-1.66,1.38-2.49,1.38-2.49.83-5.82,1.11-9.14,1.11s-7.2-.28-10.25-.28h-6.37c-2.49,0-5.26.28-8.31.28-4.43,0-8.59-.55-10.8-2.22-.28-.28-.28-.55-.28-.83,0-.83.28-1.66.28-2.22.28-1.11.28-2.22.55-3.32,1.11-5.26,2.22-9.42,2.77-13.57,0-.83.28-2.49.83-3.05,1.66-16.07,4.71-29.08,8.31-47.64,6.37-33.79,11.36-58.16,16.9-86.14,2.22-11.36,6.09-22.99,7.48-36.29.28-2.77,1.11-2.49,2.77-3.32h2.49c3.32-.83,5.82-1.11,9.42-1.94,1.66,0,3.6-.55,5.54-.83,1.38,0,15.79-.28,24.37-.28h5.54c5.26.55,10.25,1.66,15.23,2.22.83.28,1.66.55,2.22,1.38.83,1.38,1.66,2.77,1.94,4.15,1.94,7.2,3.05,14.41,4.71,21.61.83,4.98,1.94,10.25,3.32,14.96,4.98,14.68,6.65,28.53,10.25,44.59,1.66,7.76,3.05,16.07,4.71,23.82,2.22,11.08,5.82,19.39,8.58,31.85.83,4.71,1.66,8.31,3.05,13.85,1.38,5.26,2.77,8.86,3.88,13.57ZM976.17,101.01c0-.28.28-.28.28-.55,0-.55.28-.83.28-1.38,0-5.54-2.77-14.13-4.71-25.76-1.11-8.31-1.94-16.62-3.6-27.14-.28-1.11-.55-1.38-1.11-1.38s-.83.28-1.38.28c-.28,0-2.49.28-3.05,3.05-4.15,19.39-6.09,43.76-6.09,50.41v1.38c.28.28.28.55.28.83,0,1.38,3.6,1.66,6.37,1.66h3.05c3.05-.28,7.75-.83,7.75-.83.55-.28,1.94,0,1.94-.55Z"/>
      <path class="cls-1" d="M1140.95,205.43h-1.38c-3.05-.28-5.26-1.11-7.75-2.22-1.67-.55-2.5-2.49-2.5-4.15v-4.15c0-4.43-.27-8.86-.27-13.02,0-2.22.27-4.15.27-6.65.83-51.8,1.67-81.15,2.22-132.95v-1.66c0-5.26-.28-9.42-.28-13.85,0-5.54.28-12.19.83-22.16.28-2.22.28-3.32,2.5-3.6,1.1,0,2.21-.28,3.05-.28s1.66.28,2.49.28c2.49.28,4.43.28,7.48.55,3.32.55,6.09.55,8.59.55h4.42c4.15,0,7.76.28,12.47,1.66,1.11.28,1.38,1.38,1.38,2.77v75.06c0,7.75-.83,12.46-.83,20.22,0,5.54-.83,11.91-.83,16.89,0,3.05.28,5.54,1.66,6.65,4.43,4.43,24.93,4.71,37.11,4.71h3.32c3.88,0,5.27,3.88,5.27,8.59,0,21.33.83,43.21.83,63.15-.28,1.38-.83,2.22-2.21,2.49-1.39.28-3.05.28-4.44.28-11.91,0-23.82.55-37.11.55h-6.93c-10.25,0-19.94.28-29.36.28Z"/>
    </g>
    <g>
      <path class="cls-1" d="M318.7,626.64h-28.22c-4.62,0-8.72-.51-13.34-.51-8.21,0-16.42.51-25.66.51-14.88,0-17.96-24.63-28.22-39-4.62-8.21-7.7-12.32-12.31-20.53-6.67-12.83-9.75-20.01-17.45-33.35-2.05-3.59-3.08-6.16-5.64-9.75-10.26-14.88-15.4-31.3-27.71-49.77-1.03-1.54-2.05-3.08-3.59-4.62-5.64,7.7-4.62,20.01-5.64,31.3v22.07c0,17.45-.51,26.68-.51,44.13v45.16c0,7.7-5.64,11.8-13.34,11.8h-1.54c-8.72-.51-15.91-.51-22.07-.51-21.04,0-32.84,2.05-63.11,2.05h-1.03c-4.11,0-6.16-2.05-6.16-5.64,0-21.55,1.03-47.72,1.03-72.86,0-37.46-1.03-71.84-1.03-109.81,0-11.8-.51-20.01-.51-29.25,0-15.4.51-32.33.51-48.75v-100.06c.51-4.62,12.31-7.18,16.42-7.7,8.72-1.03,16.93-3.08,25.66-3.08,5.64,0,42.08-.51,47.72-.51,34.89,0,70.3,2.56,104.68,2.56,11.8.51,30.28,2.56,45.16,9.75,13.85,6.68,22.58,17.96,30.79,30.28,10.78,15.4,20.01,30.79,20.01,56.45,0,7.18-.51,28.22-4.62,34.38-1.54,5.13-3.59,10.78-6.67,15.4-4.11,7.18-10.26,19.5-18.47,24.12-9.24,5.13-14.88,7.7-24.63,11.8-6.16,2.56-35.41,8.73-37.46,8.73,7.18,10.78,13.34,20.52,20.01,30.27,8.21,11.29,17.45,35.92,27.71,54.4,13.34,23.6,17.45,40.53,46.18,90.31.51.51.51,1.03.51,2.05,0,7.7-10.78,8.21-17.45,8.21ZM168.87,325.44h-3.08c-6.67,0-3.08,0-13.86,2.05-.51,4.11-.51,8.21-.51,12.32,0,9.23,1.03,27.71,1.54,37.45,1.03,0,2.05.51,3.08.51,2.05,0,5.13.51,9.24.51,18.47,0,35.92-1.03,44.13-6.67,3.59-3.08,7.7-5.13,8.72-10.26,1.03-2.06,1.03-13.35,1.03-15.4,0-18.99-34.38-20.52-50.29-20.52Z"/>
      <path class="cls-1" d="M620.44,570.2c2.05,8.73,2.56,10.27,4.62,18.47,2.05,7.7,4.62,13.86,6.16,20.53.51,2.05.51,3.59.51,5.13,0,4.11-2.57,6.16-6.16,7.18-5.64,2.06-10.26,2.57-14.88,2.57-5.13,0-10.26-.51-16.42-.51h-3.59c-15.91,1.03-27.71,2.05-42.59,2.05-1.54,0-3.08-.51-4.1-1.02-1.54-1.03-2.57-4.11-3.08-7.18-.51-1.03-.51-2.06-1.03-3.59,0-.51-.51-1.54-.51-2.06-8.72-33.87-9.24-48.24-15.39-79.02-6.16-30.79-1.03-9.75-6.16-28.23-.51-1.54-1.54-2.56-2.57-3.59-2.05,0-9.24,0-11.8-.51-5.13,0-9.75-.51-15.4-.51h-5.13c-3.59,0-6.16-.51-9.75-.51-2.56,0-5.64.51-10.26.51-2.05,2.05-4.11,1.02-5.13,4.61-3.08,14.88-3.59,23.09-6.16,37.97-1.54,11.8-2.56,20.01-4.11,29.76-1.03,11.8-2.05,21.04-3.59,33.35-.51,3.08-1.03,6.16-1.54,9.23-.51,2.06-1.54,4.11-2.56,5.65-1.54,1.02-3.08,2.56-4.62,2.56-4.62,1.54-10.78,2.05-16.93,2.05s-13.34-.51-18.99-.51h-11.8c-4.62,0-9.75.51-15.39.51-8.21,0-15.91-1.02-20.01-4.1-.51-.51-.51-1.03-.51-1.54,0-1.54.51-3.08.51-4.11.51-2.05.51-4.11,1.03-6.16,2.05-9.75,4.11-17.45,5.13-25.14,0-1.54.51-4.62,1.54-5.65,3.08-29.76,8.72-53.88,15.39-88.26,11.8-62.6,21.04-107.76,31.3-159.58,4.11-21.04,11.29-42.59,13.85-67.22.51-5.13,2.05-4.62,5.13-6.16h4.62c6.16-1.54,10.78-2.05,17.45-3.59,3.08,0,6.67-1.02,10.26-1.54,2.56,0,29.25-.51,45.16-.51h10.26c9.75,1.03,18.99,3.08,28.22,4.11,1.54.51,3.08,1.02,4.11,2.56,1.54,2.56,3.08,5.13,3.59,7.7,3.59,13.34,5.64,26.68,8.72,40.02,1.54,9.23,3.59,18.99,6.16,27.71,9.24,27.2,12.31,52.86,18.98,82.62,3.08,14.37,5.64,29.76,8.72,44.13,4.11,20.52,10.78,35.92,15.91,59.01,1.54,8.73,3.08,15.4,5.64,25.66,2.56,9.75,5.13,16.42,7.18,25.14ZM503.44,432.68c0-.51.51-.51.51-1.03,0-1.02.51-1.54.51-2.56,0-10.26-5.13-26.17-8.72-47.72-2.05-15.4-3.59-30.78-6.67-50.29-.51-2.05-1.03-2.56-2.05-2.56s-1.54.51-2.57.51c-.51,0-4.62.51-5.64,5.64-7.69,35.92-11.29,81.08-11.29,93.39v2.57c.51.51.51,1.02.51,1.54,0,2.57,6.67,3.08,11.8,3.08h5.64c5.64-.51,14.37-1.54,14.37-1.54,1.03-.51,3.59,0,3.59-1.03Z"/>
      <path class="cls-1" d="M924.22,626.64h-28.22c-4.62,0-8.72-.51-13.34-.51-8.21,0-16.42.51-25.66.51-14.88,0-17.96-24.63-28.22-39-4.62-8.21-7.7-12.32-12.31-20.53-6.67-12.83-9.75-20.01-17.45-33.35-2.05-3.59-3.08-6.16-5.64-9.75-10.26-14.88-15.4-31.3-27.71-49.77-1.03-1.54-2.05-3.08-3.59-4.62-5.64,7.7-4.62,20.01-5.64,31.3v22.07c0,17.45-.51,26.68-.51,44.13v45.16c0,7.7-5.64,11.8-13.34,11.8h-1.54c-8.72-.51-15.91-.51-22.07-.51-21.04,0-32.84,2.05-63.11,2.05h-1.03c-4.11,0-6.16-2.05-6.16-5.64,0-21.55,1.03-47.72,1.03-72.86,0-37.46-1.03-71.84-1.03-109.81,0-11.8-.51-20.01-.51-29.25,0-15.4.51-32.33.51-48.75v-100.06c.51-4.62,12.31-7.18,16.42-7.7,8.72-1.03,16.93-3.08,25.66-3.08,5.64,0,42.08-.51,47.72-.51,34.89,0,70.3,2.56,104.68,2.56,11.8.51,30.28,2.56,45.16,9.75,13.85,6.68,22.58,17.96,30.79,30.28,10.78,15.4,20.01,30.79,20.01,56.45,0,7.18-.51,28.22-4.62,34.38-1.54,5.13-3.59,10.78-6.67,15.4-4.11,7.18-10.26,19.5-18.47,24.12-9.24,5.13-14.88,7.7-24.63,11.8-6.16,2.56-35.41,8.73-37.46,8.73,7.18,10.78,13.34,20.52,20.01,30.27,8.21,11.29,17.45,35.92,27.71,54.4,13.34,23.6,17.45,40.53,46.18,90.31.51.51.51,1.03.51,2.05,0,7.7-10.78,8.21-17.45,8.21ZM774.39,325.44h-3.08c-6.67,0-3.08,0-13.86,2.05-.51,4.11-.51,8.21-.51,12.32,0,9.23,1.03,27.71,1.54,37.45,1.03,0,2.05.51,3.08.51,2.05,0,5.13.51,9.24.51,18.47,0,35.92-1.03,44.13-6.67,3.59-3.08,7.7-5.13,8.72-10.26,1.03-2.06,1.03-13.35,1.03-15.4,0-18.99-34.38-20.52-50.29-20.52Z"/>
      <path class="cls-1" d="M1086.9,631.78c-4.61.51-9.23.51-13.34.51-6.16-.51-12.32-.51-18.47-.51-73.89,0-96.47-53.37-102.63-123.16-1.03-7.7-1.54-15.9-1.54-23.6v-14.88c0-50.29,6.16-96.99,16.42-137.01,3.08-12.31,8.72-24.63,14.88-35.92,18.47-32.84,42.07-48.74,90.31-52.34,5.64-.51,11.29-1.03,16.94-1.03,42.07,0,81.58,17.96,94.92,45.16,10.27,22.57,16.42,42.59,18.99,72.86,0,3.08.51,6.16.51,9.23,1.54,22.07,2.05,47.21,2.05,71.84v7.7c0,57.98-.51,111.87-27.71,143.68-19.5,23.6-50.8,37.46-91.34,37.46ZM1091.52,333.64c-2.57-2.56-5.64-4.11-9.75-4.11h-.51c-8.21,1.03-17.45,8.21-23.09,26.68-2.05,7.18-3.59,14.88-4.11,22.58-2.05,11.29-1.03,24.12-2.56,35.92-.51,12.32-1.03,8.73-1.03,16.93v5.65c0,5.64.51,10.26.51,15.91.51,17.45.51,17.96,2.57,34.38,1.02,12.83,10.26,52.86,26.17,52.86,25.15,0,27.71-34.38,28.74-57.48,1.54-17.96,2.56-16.42,2.56-37.97v-34.38c-.52-14.37-5.65-63.11-19.5-76.97Z"/>
    </g>
  </g>
</svg>