<?xml version="1.0" encoding="UTF-8"?>
<svg id="Capa_1" data-name="Capa 1" xmlns="http://www.w3.org/2000/svg" viewBox="0 0 830.79 816.05">
  <defs>
    <style>
      .cls-1 {
        fill: #464b99;
      }

      .cls-2 {
        fill: #b2cb05;
      }

      .cls-3 {
        fill: #b2cc3a;
      }

      .cls-4 {
        fill: #6c69ad;
      }
    </style>
  </defs>
  <g>
    <path class="cls-2" d="M172.53,99.12c.62,2.65.78,3.11,1.4,5.61.62,2.34,1.4,4.2,1.87,6.23.16.62.16,1.09.16,1.56,0,1.25-.78,1.87-1.87,2.18-1.71.62-3.11.78-4.52.78-1.56,0-3.11-.16-4.98-.16h-1.09c-4.83.31-8.41.62-12.93.62-.47,0-.93-.16-1.25-.31-.47-.31-.78-1.25-.94-2.18-.16-.31-.16-.62-.31-1.09,0-.16-.16-.47-.16-.62-2.65-10.28-2.8-14.64-4.67-23.98-1.87-9.35-.31-2.96-1.87-8.57-.16-.47-.47-.78-.78-1.09-.62,0-2.8,0-3.58-.16-1.56,0-2.96-.16-4.67-.16h-1.56c-1.09,0-1.87-.16-2.96-.16-.78,0-1.71.16-3.11.16-.62.62-1.25.31-1.56,1.4-.94,4.52-1.09,7.01-1.87,11.52-.47,3.58-.78,6.07-1.25,9.03-.31,3.58-.62,6.39-1.09,10.12-.16.94-.31,1.87-.47,2.8-.16.62-.47,1.25-.78,1.71-.47.31-.93.78-1.4.78-1.4.47-3.27.62-5.14.62s-4.05-.16-5.76-.16h-3.58c-1.4,0-2.96.16-4.67.16-2.49,0-4.83-.31-6.07-1.25-.16-.16-.16-.31-.16-.47,0-.47.16-.93.16-1.25.16-.62.16-1.25.31-1.87.62-2.96,1.25-5.3,1.56-7.63,0-.47.16-1.4.47-1.71.93-9.03,2.65-16.35,4.67-26.79,3.58-19,6.39-32.7,9.5-48.43,1.25-6.39,3.43-12.93,4.2-20.4.16-1.56.62-1.4,1.56-1.87h1.4c1.87-.47,3.27-.62,5.3-1.09.93,0,2.02-.31,3.11-.47.78,0,8.88-.16,13.7-.16h3.12c2.96.31,5.76.93,8.56,1.25.47.16.93.31,1.25.78.47.78.94,1.56,1.09,2.34,1.09,4.05,1.71,8.1,2.65,12.15.47,2.8,1.09,5.76,1.87,8.41,2.8,8.25,3.74,16.04,5.76,25.07.93,4.36,1.71,9.03,2.65,13.39,1.25,6.23,3.27,10.9,4.83,17.91.47,2.65.94,4.67,1.71,7.79.78,2.96,1.56,4.98,2.18,7.63ZM137.03,57.38c0-.16.16-.16.16-.31,0-.31.16-.47.16-.78,0-3.12-1.56-7.94-2.65-14.48-.62-4.67-1.09-9.35-2.03-15.26-.16-.62-.31-.78-.62-.78s-.47.16-.78.16c-.16,0-1.4.16-1.71,1.71-2.34,10.9-3.43,24.61-3.43,28.34v.78c.16.16.16.31.16.47,0,.78,2.02.93,3.58.93h1.71c1.71-.16,4.36-.47,4.36-.47.31-.16,1.09,0,1.09-.31Z"/>
    <path class="cls-2" d="M291.04,116.4h-2.18c-2.65,0-13.24-.16-17.29-.16-1.25,0-2.03-.31-2.49-1.25-.62-1.87-1.87-7.48-2.65-9.5-2.18-4.98-3.74-10.43-5.92-15.42-.31-.62-.62-1.25-.62-1.87-2.8-6.39-4.2-13.24-6.54-20.09-3.11-9.5-2.34-9.19-2.8-9.81h-.31c-.31,0-.47,1.56-.47,3.74s.16,4.83.16,6.54c-.16,7.94-.47,12.46-.62,20.4v10.43c0,2.8-.16,5.76-.16,8.72-.16,2.18.31,8.1-1.87,8.1h-.47c-2.65,0-4.52-.16-6.07-.16-2.18,0-3.74.16-5.3.16-1.71,0-3.58-.16-6.7-.31-.31,0-.62-.16-1.09-.16h-.62c-1.25,0-2.65-1.09-2.65-2.34v-15.89c0-30.83.31-50.93.62-81.14v-4.98c0-1.56,0-2.96.31-4.52v-2.34c0-1.09.31-1.56,1.25-2.03l2.49-.47c1.87-.16,4.05-.31,5.92-.31,4.05,0,7.32,1.09,10.9,1.09,1.56,0,2.34,1.09,2.96,2.49,11.37,27.57,16.35,43.61,27.41,71.33.16.16.16.31.16.31.16,0,.16-.16.16-.31,0-.47-.31-1.87-.31-2.96,0-14.79-.31-27.72-.31-42.67,0-5.45-.16-10.75-.16-16.04,0-3.11.31-6.39.31-9.5,0-.93.47-2.02,1.56-2.02,4.2,0,6.7.16,7.94.16h9.66c1.09.16,1.56.94,1.56,1.87v108.24c0,2.34-3.11,2.65-5.76,2.65Z"/>
    <path class="cls-2" d="M372.95,116.25h-2.34c-5.14,0-13.39.16-20.24.16-2.34,0-2.96-5.92-2.96-12.46,0-4.67.31-9.81.31-12.77v-1.56c-.16-1.4-.16-2.34-.16-3.43v-18.38c0-11.68.31-23.98.31-35.04v-2.96c0-3.43-.16-6.7-.16-10.12-.16-4.2-.16-8.41-.16-12.93v-2.18c.16-.62.31-1.09.47-1.56.31-.31.78-.62,1.09-.62h1.25c2.34,0,4.52-.31,6.85-.47,7.47,0,14.33.16,21.49.16.31,0,.47,0,.78.31.78.78,1.25,1.71,1.25,2.8v11.37c0,8.72,0,17.6-.31,25.85-.31,8.1-.47,14.02-.47,19.47,0,4.2.16,8.25.16,12.77s-.16,9.81-.31,16.51v16.66c0,.16.16,5.61.16,5.76,0,.62-.31,1.25-.78,1.71-.62.62-3.74.93-6.23.93Z"/>
    <path class="cls-2" d="M503.29,111.58c0-4.2.16-8.25.16-12.46,0-10.75-.47-22.27-.47-33.02,0-2.18.16-4.52.16-7.01v-1.4c-1.87,4.83-4.2,11.37-4.67,13.08-3.89,12.15-5.61,13.86-9.5,26.01-.62,2.18-3.43,9.66-6.07,9.66-.62,0-1.09-.31-1.71-.78-.31-.47-.62-.93-.93-1.4-2.8-6.54-5.45-13.71-7.63-20.71-.62-1.87-1.09-3.74-1.56-5.76-1.09-4.05-5.61-14.64-8.41-20.09,0,.47-.31,3.58-.31,4.05.16,3.11.16,5.76.16,8.25v14.64c0,5.76.62,11.06.62,16.51v2.49c0,1.71-.16,4.98-.16,6.7,0,.93,0,1.87-.16,2.8,0,.62-.31,1.25-1.09,1.4-6.07,1.25-20.56,1.4-28.97,1.4-1.25-.16-1.71-.93-1.71-2.18v-.16c0-3.11-.47-7.16-.47-10.59,0-6.54.31-11.52.31-16.97v-3.89c0-5.92,0-10.9.16-17.29,0-6.54.16-10.9.16-17.13,0-13.86-.62-27.41-.62-40.8,0-1.4.16-2.96.47-4.05.31-.93.94-.93,1.56-.93h1.25c1.09,0,2.49.16,3.74.16h6.85c2.18,0,11.52-.62,13.24-.62,2.96,0,8.56,11.21,10.12,14.48,2.02,4.2,8.72,19.62,10.12,24.14.16.47.16,1.09.31,1.56.78,2.49,1.71,5.14,2.65,7.63.47,1.71,1.09,3.27,1.87,4.67.62,0,.78-.47.93-.78,2.49-9.03,5.45-15.42,8.41-23.52.62-1.71,4.36-13.08,7.32-22.11,1.87-5.92.62-4.98,5.3-5.14h2.49c2.65,0,1.56.31,6.85.31,2.8,0,3.27,0,6.07.16,2.49,0,8.1,0,8.1,2.65v3.43c0,1.87.16,3.58.16,4.98,0,.31,0,.78-.16,1.09v59.34c0,12.77-.16,25.54-.16,38.62,0,2.34-2.34,2.18-4.05,2.65-1.09.31-2.8.31-3.89.31h-.47c-2.8.16-6.23.62-9.34.62s-7.01-.16-7.01-3.58v-1.4Z"/>
    <path class="cls-2" d="M659.79,99.12c.62,2.65.78,3.11,1.4,5.61.62,2.34,1.4,4.2,1.87,6.23.16.62.16,1.09.16,1.56,0,1.25-.78,1.87-1.87,2.18-1.71.62-3.11.78-4.52.78-1.56,0-3.11-.16-4.98-.16h-1.09c-4.83.31-8.41.62-12.93.62-.47,0-.93-.16-1.25-.31-.47-.31-.78-1.25-.94-2.18-.16-.31-.16-.62-.31-1.09,0-.16-.16-.47-.16-.62-2.65-10.28-2.8-14.64-4.67-23.98-1.87-9.35-.31-2.96-1.87-8.57-.16-.47-.47-.78-.78-1.09-.62,0-2.8,0-3.58-.16-1.56,0-2.96-.16-4.67-.16h-1.56c-1.09,0-1.87-.16-2.96-.16-.78,0-1.71.16-3.11.16-.62.62-1.25.31-1.56,1.4-.94,4.52-1.09,7.01-1.87,11.52-.47,3.58-.78,6.07-1.25,9.03-.31,3.58-.62,6.39-1.09,10.12-.16.94-.31,1.87-.47,2.8-.16.62-.47,1.25-.78,1.71-.47.31-.93.78-1.4.78-1.4.47-3.27.62-5.14.62s-4.05-.16-5.76-.16h-3.58c-1.4,0-2.96.16-4.67.16-2.49,0-4.83-.31-6.07-1.25-.16-.16-.16-.31-.16-.47,0-.47.16-.93.16-1.25.16-.62.16-1.25.31-1.87.62-2.96,1.25-5.3,1.56-7.63,0-.47.16-1.4.47-1.71.93-9.03,2.65-16.35,4.67-26.79,3.58-19,6.39-32.7,9.5-48.43,1.25-6.39,3.43-12.93,4.2-20.4.16-1.56.62-1.4,1.56-1.87h1.4c1.87-.47,3.27-.62,5.3-1.09.93,0,2.02-.31,3.11-.47.78,0,8.88-.16,13.7-.16h3.12c2.96.31,5.76.93,8.56,1.25.47.16.93.31,1.25.78.47.78.94,1.56,1.09,2.34,1.09,4.05,1.71,8.1,2.65,12.15.47,2.8,1.09,5.76,1.87,8.41,2.8,8.25,3.74,16.04,5.76,25.07.93,4.36,1.71,9.03,2.65,13.39,1.25,6.23,3.27,10.9,4.83,17.91.47,2.65.94,4.67,1.71,7.79.78,2.96,1.56,4.98,2.18,7.63ZM624.29,57.38c0-.16.16-.16.16-.31,0-.31.16-.47.16-.78,0-3.12-1.56-7.94-2.65-14.48-.62-4.67-1.09-9.35-2.03-15.26-.16-.62-.31-.78-.62-.78s-.47.16-.78.16c-.16,0-1.4.16-1.71,1.71-2.34,10.9-3.43,24.61-3.43,28.34v.78c.16.16.16.31.16.47,0,.78,2.02.93,3.58.93h1.71c1.71-.16,4.36-.47,4.36-.47.31-.16,1.09,0,1.09-.31Z"/>
    <path class="cls-2" d="M716.94,116.09h-.78c-1.71-.16-2.96-.62-4.36-1.25-.94-.31-1.41-1.4-1.41-2.34v-2.34c0-2.49-.15-4.98-.15-7.32,0-1.25.15-2.34.15-3.74.47-29.12.94-45.63,1.25-74.75v-.93c0-2.96-.16-5.3-.16-7.79,0-3.12.16-6.85.47-12.46.16-1.25.16-1.87,1.41-2.02.62,0,1.24-.16,1.71-.16s.93.16,1.4.16c1.4.16,2.49.16,4.2.31,1.87.31,3.42.31,4.83.31h2.49c2.34,0,4.36.16,7.01.94.62.16.78.78.78,1.56v42.2c0,4.36-.47,7.01-.47,11.37,0,3.11-.47,6.7-.47,9.5,0,1.71.16,3.12.93,3.74,2.49,2.49,14.02,2.65,20.87,2.65h1.87c2.18,0,2.96,2.18,2.96,4.83,0,11.99.47,24.29.47,35.51-.16.78-.47,1.25-1.24,1.4-.78.16-1.72.16-2.49.16-6.7,0-13.39.31-20.87.31h-3.9c-5.76,0-11.21.16-16.51.16Z"/>
  </g>
  <g>
    <path class="cls-2" d="M254.9,812.88h-15.87c-2.6,0-4.9-.29-7.5-.29-4.62,0-9.23.29-14.43.29-8.37,0-10.1-13.85-15.87-21.93-2.6-4.62-4.33-6.93-6.92-11.54-3.75-7.21-5.48-11.25-9.81-18.75-1.15-2.02-1.73-3.46-3.17-5.48-5.77-8.37-8.66-17.6-15.58-27.99-.58-.87-1.15-1.73-2.02-2.6-3.17,4.33-2.6,11.25-3.17,17.6v12.41c0,9.81-.29,15-.29,24.81v25.39c0,4.33-3.17,6.64-7.5,6.64h-.87c-4.9-.29-8.94-.29-12.41-.29-11.83,0-18.47,1.15-35.49,1.15h-.58c-2.31,0-3.46-1.15-3.46-3.17,0-12.12.58-26.83.58-40.97,0-21.06-.58-40.39-.58-61.74,0-6.64-.29-11.25-.29-16.45,0-8.66.29-18.18.29-27.41v-56.26c.29-2.6,6.92-4.04,9.23-4.33,4.9-.58,9.52-1.73,14.43-1.73,3.17,0,23.66-.29,26.83-.29,19.62,0,39.53,1.44,58.86,1.44,6.64.29,17.02,1.44,25.39,5.48,7.79,3.75,12.69,10.1,17.31,17.02,6.06,8.66,11.25,17.31,11.25,31.74,0,4.04-.29,15.87-2.6,19.33-.87,2.89-2.02,6.06-3.75,8.66-2.31,4.04-5.77,10.96-10.39,13.56-5.19,2.89-8.37,4.33-13.85,6.64-3.46,1.44-19.91,4.91-21.06,4.91,4.04,6.06,7.5,11.54,11.25,17.02,4.62,6.35,9.81,20.2,15.58,30.59,7.5,13.27,9.81,22.79,25.97,50.78.29.29.29.58.29,1.15,0,4.33-6.06,4.62-9.81,4.62ZM170.65,643.52h-1.73c-3.75,0-1.73,0-7.79,1.15-.29,2.31-.29,4.62-.29,6.93,0,5.19.58,15.58.87,21.06.58,0,1.15.29,1.73.29,1.15,0,2.88.29,5.19.29,10.39,0,20.2-.58,24.81-3.75,2.02-1.73,4.33-2.89,4.9-5.77.58-1.16.58-7.5.58-8.66,0-10.68-19.33-11.54-28.28-11.54Z"/>
    <path class="cls-2" d="M424.56,781.14c1.15,4.91,1.44,5.77,2.6,10.39,1.15,4.33,2.6,7.79,3.46,11.54.29,1.15.29,2.02.29,2.88,0,2.31-1.44,3.46-3.46,4.04-3.17,1.16-5.77,1.44-8.37,1.44-2.88,0-5.77-.29-9.23-.29h-2.02c-8.94.58-15.58,1.15-23.95,1.15-.87,0-1.73-.29-2.31-.57-.87-.58-1.44-2.31-1.73-4.04-.29-.58-.29-1.16-.58-2.02,0-.29-.29-.87-.29-1.16-4.9-19.04-5.19-27.12-8.65-44.43-3.46-17.31-.58-5.48-3.46-15.87-.29-.86-.87-1.44-1.44-2.02-1.15,0-5.19,0-6.64-.29-2.88,0-5.48-.29-8.66-.29h-2.88c-2.02,0-3.46-.29-5.48-.29-1.44,0-3.17.29-5.77.29-1.15,1.15-2.31.57-2.88,2.59-1.73,8.37-2.02,12.98-3.46,21.35-.87,6.64-1.44,11.25-2.31,16.73-.58,6.64-1.15,11.83-2.02,18.75-.29,1.73-.58,3.46-.87,5.19-.29,1.16-.87,2.31-1.44,3.18-.87.57-1.73,1.44-2.6,1.44-2.6.87-6.06,1.15-9.52,1.15s-7.5-.29-10.68-.29h-6.64c-2.6,0-5.48.29-8.65.29-4.62,0-8.94-.57-11.25-2.31-.29-.29-.29-.58-.29-.87,0-.87.29-1.73.29-2.31.29-1.15.29-2.31.58-3.46,1.15-5.48,2.31-9.81,2.88-14.14,0-.87.29-2.6.87-3.18,1.73-16.73,4.9-30.29,8.65-49.63,6.64-35.2,11.83-60.59,17.6-89.73,2.31-11.83,6.35-23.95,7.79-37.79.29-2.89,1.15-2.6,2.89-3.46h2.6c3.46-.86,6.06-1.15,9.81-2.02,1.73,0,3.75-.57,5.77-.86,1.44,0,16.45-.29,25.39-.29h5.77c5.48.58,10.68,1.73,15.87,2.31.87.29,1.73.57,2.31,1.44.87,1.44,1.73,2.89,2.02,4.33,2.02,7.5,3.17,15,4.9,22.5.87,5.19,2.02,10.68,3.46,15.58,5.19,15.29,6.92,29.72,10.67,46.45,1.73,8.08,3.17,16.73,4.9,24.81,2.31,11.54,6.06,20.2,8.95,33.18.87,4.91,1.73,8.66,3.17,14.43,1.44,5.48,2.88,9.23,4.04,14.14ZM358.77,703.82c0-.29.29-.29.29-.58,0-.57.29-.86.29-1.44,0-5.77-2.88-14.71-4.9-26.83-1.15-8.66-2.02-17.31-3.75-28.27-.29-1.15-.58-1.44-1.15-1.44s-.87.29-1.44.29c-.29,0-2.6.29-3.17,3.17-4.33,20.2-6.35,45.59-6.35,52.51v1.44c.29.29.29.57.29.86,0,1.44,3.75,1.73,6.64,1.73h3.17c3.17-.29,8.08-.86,8.08-.86.58-.29,2.02,0,2.02-.58Z"/>
    <path class="cls-2" d="M595.36,812.88h-15.87c-2.6,0-4.9-.29-7.5-.29-4.62,0-9.23.29-14.43.29-8.37,0-10.1-13.85-15.87-21.93-2.6-4.62-4.33-6.93-6.92-11.54-3.75-7.21-5.48-11.25-9.81-18.75-1.15-2.02-1.73-3.46-3.17-5.48-5.77-8.37-8.66-17.6-15.58-27.99-.58-.87-1.15-1.73-2.02-2.6-3.17,4.33-2.6,11.25-3.17,17.6v12.41c0,9.81-.29,15-.29,24.81v25.39c0,4.33-3.17,6.64-7.5,6.64h-.87c-4.9-.29-8.94-.29-12.41-.29-11.83,0-18.47,1.15-35.49,1.15h-.58c-2.31,0-3.46-1.15-3.46-3.17,0-12.12.58-26.83.58-40.97,0-21.06-.58-40.39-.58-61.74,0-6.64-.29-11.25-.29-16.45,0-8.66.29-18.18.29-27.41v-56.26c.29-2.6,6.92-4.04,9.23-4.33,4.9-.58,9.52-1.73,14.43-1.73,3.17,0,23.66-.29,26.83-.29,19.62,0,39.53,1.44,58.86,1.44,6.64.29,17.02,1.44,25.39,5.48,7.79,3.75,12.69,10.1,17.31,17.02,6.06,8.66,11.25,17.31,11.25,31.74,0,4.04-.29,15.87-2.6,19.33-.87,2.89-2.02,6.06-3.75,8.66-2.31,4.04-5.77,10.96-10.39,13.56-5.19,2.89-8.37,4.33-13.85,6.64-3.46,1.44-19.91,4.91-21.06,4.91,4.04,6.06,7.5,11.54,11.25,17.02,4.62,6.35,9.81,20.2,15.58,30.59,7.5,13.27,9.81,22.79,25.97,50.78.29.29.29.58.29,1.15,0,4.33-6.06,4.62-9.81,4.62ZM511.12,643.52h-1.73c-3.75,0-1.73,0-7.79,1.15-.29,2.31-.29,4.62-.29,6.93,0,5.19.58,15.58.87,21.06.58,0,1.15.29,1.73.29,1.15,0,2.88.29,5.19.29,10.39,0,20.2-.58,24.81-3.75,2.02-1.73,4.33-2.89,4.9-5.77.58-1.16.58-7.5.58-8.66,0-10.68-19.33-11.54-28.28-11.54Z"/>
    <path class="cls-2" d="M686.83,815.77c-2.59.29-5.19.29-7.5.29-3.46-.29-6.93-.29-10.39-.29-41.55,0-54.24-30.01-57.7-69.25-.58-4.33-.87-8.94-.87-13.27v-8.37c0-28.27,3.46-54.53,9.23-77.04,1.73-6.92,4.9-13.85,8.37-20.2,10.39-18.47,23.66-27.41,50.78-29.43,3.17-.29,6.35-.58,9.52-.58,23.66,0,45.87,10.1,53.37,25.39,5.77,12.69,9.23,23.95,10.68,40.97,0,1.73.29,3.46.29,5.19.87,12.41,1.15,26.54,1.15,40.39v4.33c0,32.6-.29,62.9-15.58,80.79-10.96,13.27-28.56,21.06-51.36,21.06ZM689.43,648.14c-1.44-1.44-3.17-2.31-5.48-2.31h-.29c-4.62.58-9.81,4.62-12.98,15-1.15,4.04-2.02,8.37-2.31,12.7-1.15,6.35-.58,13.56-1.44,20.2-.29,6.93-.58,4.91-.58,9.52v3.18c0,3.17.29,5.77.29,8.95.29,9.81.29,10.1,1.44,19.33.57,7.21,5.77,29.72,14.71,29.72,14.14,0,15.58-19.33,16.16-32.32.86-10.1,1.44-9.23,1.44-21.35v-19.33c-.29-8.08-3.18-35.49-10.96-43.28Z"/>
  </g>
  <g>
    <path class="cls-4" d="M188.11,98.11c.62,2.65.78,3.11,1.4,5.61.62,2.34,1.4,4.2,1.87,6.23.16.62.16,1.09.16,1.56,0,1.25-.78,1.87-1.87,2.18-1.71.62-3.11.78-4.52.78-1.56,0-3.11-.16-4.98-.16h-1.09c-4.83.31-8.41.62-12.93.62-.47,0-.93-.16-1.25-.31-.47-.31-.78-1.25-.94-2.18-.16-.31-.16-.62-.31-1.09,0-.16-.16-.47-.16-.62-2.65-10.28-2.8-14.64-4.67-23.98-1.87-9.35-.31-2.96-1.87-8.57-.16-.47-.47-.78-.78-1.09-.62,0-2.8,0-3.58-.16-1.56,0-2.96-.16-4.67-.16h-1.56c-1.09,0-1.87-.16-2.96-.16-.78,0-1.71.16-3.11.16-.62.62-1.25.31-1.56,1.4-.94,4.52-1.09,7.01-1.87,11.52-.47,3.58-.78,6.07-1.25,9.03-.31,3.58-.62,6.39-1.09,10.12-.16.94-.31,1.87-.47,2.8-.16.62-.47,1.25-.78,1.71-.47.31-.93.78-1.4.78-1.4.47-3.27.62-5.14.62s-4.05-.16-5.76-.16h-3.58c-1.4,0-2.96.16-4.67.16-2.49,0-4.83-.31-6.07-1.25-.16-.16-.16-.31-.16-.47,0-.47.16-.93.16-1.25.16-.62.16-1.25.31-1.87.62-2.96,1.25-5.3,1.56-7.63,0-.47.16-1.4.47-1.71.93-9.03,2.65-16.35,4.67-26.79,3.58-19,6.39-32.7,9.5-48.43,1.25-6.39,3.43-12.93,4.2-20.4.16-1.56.62-1.4,1.56-1.87h1.4c1.87-.47,3.27-.62,5.3-1.09.93,0,2.02-.31,3.11-.47.78,0,8.88-.16,13.7-.16h3.12c2.96.31,5.76.93,8.56,1.25.47.16.93.31,1.25.78.47.78.94,1.56,1.09,2.34,1.09,4.05,1.71,8.1,2.65,12.15.47,2.8,1.09,5.76,1.87,8.41,2.8,8.25,3.74,16.04,5.76,25.07.93,4.36,1.71,9.03,2.65,13.39,1.25,6.23,3.27,10.9,4.83,17.91.47,2.65.94,4.67,1.71,7.79.78,2.96,1.56,4.98,2.18,7.63ZM152.6,56.38c0-.16.16-.16.16-.31,0-.31.16-.47.16-.78,0-3.12-1.56-7.94-2.65-14.48-.62-4.67-1.09-9.35-2.03-15.26-.16-.62-.31-.78-.62-.78s-.47.16-.78.16c-.16,0-1.4.16-1.71,1.71-2.34,10.9-3.43,24.61-3.43,28.34v.78c.16.16.16.31.16.47,0,.78,2.02.93,3.58.93h1.71c1.71-.16,4.36-.47,4.36-.47.31-.16,1.09,0,1.09-.31Z"/>
    <path class="cls-4" d="M306.61,115.4h-2.18c-2.65,0-13.24-.16-17.29-.16-1.25,0-2.03-.31-2.49-1.25-.62-1.87-1.87-7.48-2.65-9.5-2.18-4.98-3.74-10.43-5.92-15.42-.31-.62-.62-1.25-.62-1.87-2.8-6.39-4.2-13.24-6.54-20.09-3.11-9.5-2.34-9.19-2.8-9.81h-.31c-.31,0-.47,1.56-.47,3.74s.16,4.83.16,6.54c-.16,7.94-.47,12.46-.62,20.4v10.43c0,2.8-.16,5.76-.16,8.72-.16,2.18.31,8.1-1.87,8.1h-.47c-2.65,0-4.52-.16-6.07-.16-2.18,0-3.74.16-5.3.16-1.71,0-3.58-.16-6.7-.31-.31,0-.62-.16-1.09-.16h-.62c-1.25,0-2.65-1.09-2.65-2.34v-15.89c0-30.83.31-50.93.62-81.14v-4.98c0-1.56,0-2.96.31-4.52v-2.34c0-1.09.31-1.56,1.25-2.03l2.49-.47c1.87-.16,4.05-.31,5.92-.31,4.05,0,7.32,1.09,10.9,1.09,1.56,0,2.34,1.09,2.96,2.49,11.37,27.57,16.35,43.61,27.41,71.33.16.16.16.31.16.31.16,0,.16-.16.16-.31,0-.47-.31-1.87-.31-2.96,0-14.79-.31-27.72-.31-42.67,0-5.45-.16-10.75-.16-16.04,0-3.11.31-6.39.31-9.5,0-.93.47-2.02,1.56-2.02,4.2,0,6.7.16,7.94.16h9.66c1.09.16,1.56.94,1.56,1.87v108.24c0,2.34-3.11,2.65-5.76,2.65Z"/>
    <path class="cls-4" d="M388.52,115.24h-2.34c-5.14,0-13.39.16-20.24.16-2.34,0-2.96-5.92-2.96-12.46,0-4.67.31-9.81.31-12.77v-1.56c-.16-1.4-.16-2.34-.16-3.43v-18.38c0-11.68.31-23.98.31-35.04v-2.96c0-3.43-.16-6.7-.16-10.12-.16-4.2-.16-8.41-.16-12.93v-2.18c.16-.62.31-1.09.47-1.56.31-.31.78-.62,1.09-.62h1.25c2.34,0,4.52-.31,6.85-.47,7.47,0,14.33.16,21.49.16.31,0,.47,0,.78.31.78.78,1.25,1.71,1.25,2.8v11.37c0,8.72,0,17.6-.31,25.85-.31,8.1-.47,14.02-.47,19.47,0,4.2.16,8.25.16,12.77s-.16,9.81-.31,16.51v16.66c0,.16.16,5.61.16,5.76,0,.62-.31,1.25-.78,1.71-.62.62-3.74.93-6.23.93Z"/>
    <path class="cls-4" d="M518.86,110.57c0-4.2.16-8.25.16-12.46,0-10.75-.47-22.27-.47-33.02,0-2.18.16-4.52.16-7.01v-1.4c-1.87,4.83-4.2,11.37-4.67,13.08-3.89,12.15-5.61,13.86-9.5,26.01-.62,2.18-3.43,9.66-6.07,9.66-.62,0-1.09-.31-1.71-.78-.31-.47-.62-.93-.93-1.4-2.8-6.54-5.45-13.71-7.63-20.71-.62-1.87-1.09-3.74-1.56-5.76-1.09-4.05-5.61-14.64-8.41-20.09,0,.47-.31,3.58-.31,4.05.16,3.11.16,5.76.16,8.25v14.64c0,5.76.62,11.06.62,16.51v2.49c0,1.71-.16,4.98-.16,6.7,0,.93,0,1.87-.16,2.8,0,.62-.31,1.25-1.09,1.4-6.07,1.25-20.56,1.4-28.97,1.4-1.25-.16-1.71-.93-1.71-2.18v-.16c0-3.11-.47-7.16-.47-10.59,0-6.54.31-11.52.31-16.97v-3.89c0-5.92,0-10.9.16-17.29,0-6.54.16-10.9.16-17.13,0-13.86-.62-27.41-.62-40.8,0-1.4.16-2.96.47-4.05.31-.93.94-.93,1.56-.93h1.25c1.09,0,2.49.16,3.74.16h6.85c2.18,0,11.52-.62,13.24-.62,2.96,0,8.56,11.21,10.12,14.48,2.02,4.2,8.72,19.62,10.12,24.14.16.47.16,1.09.31,1.56.78,2.49,1.71,5.14,2.65,7.63.47,1.71,1.09,3.27,1.87,4.67.62,0,.78-.47.93-.78,2.49-9.03,5.45-15.42,8.41-23.52.62-1.71,4.36-13.08,7.32-22.11,1.87-5.92.62-4.98,5.3-5.14h2.49c2.65,0,1.56.31,6.85.31,2.8,0,3.27,0,6.07.16,2.49,0,8.1,0,8.1,2.65v3.43c0,1.87.16,3.58.16,4.98,0,.31,0,.78-.16,1.09v59.34c0,12.77-.16,25.54-.16,38.62,0,2.34-2.34,2.18-4.05,2.65-1.09.31-2.8.31-3.89.31h-.47c-2.8.16-6.23.62-9.34.62s-7.01-.16-7.01-3.58v-1.4Z"/>
    <path class="cls-4" d="M675.37,98.11c.62,2.65.78,3.11,1.4,5.61.62,2.34,1.4,4.2,1.87,6.23.16.62.16,1.09.16,1.56,0,1.25-.78,1.87-1.87,2.18-1.71.62-3.11.78-4.52.78-1.56,0-3.11-.16-4.98-.16h-1.09c-4.83.31-8.41.62-12.93.62-.47,0-.93-.16-1.25-.31-.47-.31-.78-1.25-.94-2.18-.16-.31-.16-.62-.31-1.09,0-.16-.16-.47-.16-.62-2.65-10.28-2.8-14.64-4.67-23.98-1.87-9.35-.31-2.96-1.87-8.57-.16-.47-.47-.78-.78-1.09-.62,0-2.8,0-3.58-.16-1.56,0-2.96-.16-4.67-.16h-1.56c-1.09,0-1.87-.16-2.96-.16-.78,0-1.71.16-3.11.16-.62.62-1.25.31-1.56,1.4-.94,4.52-1.09,7.01-1.87,11.52-.47,3.58-.78,6.07-1.25,9.03-.31,3.58-.62,6.39-1.09,10.12-.16.94-.31,1.87-.47,2.8-.16.62-.47,1.25-.78,1.71-.47.31-.93.78-1.4.78-1.4.47-3.27.62-5.14.62s-4.05-.16-5.76-.16h-3.58c-1.4,0-2.96.16-4.67.16-2.49,0-4.83-.31-6.07-1.25-.16-.16-.16-.31-.16-.47,0-.47.16-.93.16-1.25.16-.62.16-1.25.31-1.87.62-2.96,1.25-5.3,1.56-7.63,0-.47.16-1.4.47-1.71.93-9.03,2.65-16.35,4.67-26.79,3.58-19,6.39-32.7,9.5-48.43,1.25-6.39,3.43-12.93,4.2-20.4.16-1.56.62-1.4,1.56-1.87h1.4c1.87-.47,3.27-.62,5.3-1.09.93,0,2.02-.31,3.11-.47.78,0,8.88-.16,13.7-.16h3.12c2.96.31,5.76.93,8.56,1.25.47.16.93.31,1.25.78.47.78.94,1.56,1.09,2.34,1.09,4.05,1.71,8.1,2.65,12.15.47,2.8,1.09,5.76,1.87,8.41,2.8,8.25,3.74,16.04,5.76,25.07.93,4.36,1.71,9.03,2.65,13.39,1.25,6.23,3.27,10.9,4.83,17.91.47,2.65.93,4.67,1.71,7.79.78,2.96,1.56,4.98,2.18,7.63ZM639.86,56.38c0-.16.16-.16.16-.31,0-.31.16-.47.16-.78,0-3.12-1.56-7.94-2.65-14.48-.62-4.67-1.09-9.35-2.03-15.26-.16-.62-.31-.78-.62-.78s-.47.16-.78.16c-.16,0-1.4.16-1.71,1.71-2.34,10.9-3.43,24.61-3.43,28.34v.78c.16.16.16.31.16.47,0,.78,2.02.93,3.58.93h1.71c1.71-.16,4.36-.47,4.36-.47.31-.16,1.09,0,1.09-.31Z"/>
    <path class="cls-4" d="M732.51,115.09h-.78c-1.71-.16-2.96-.62-4.36-1.25-.94-.31-1.41-1.4-1.41-2.34v-2.34c0-2.49-.15-4.98-.15-7.32,0-1.25.15-2.34.15-3.74.47-29.12.94-45.63,1.25-74.75v-.93c0-2.96-.16-5.3-.16-7.79,0-3.12.16-6.85.47-12.46.16-1.25.16-1.87,1.41-2.02.62,0,1.24-.16,1.71-.16s.93.16,1.4.16c1.4.16,2.49.16,4.2.31,1.87.31,3.42.31,4.83.31h2.49c2.34,0,4.36.16,7.01.94.62.16.78.78.78,1.56v42.2c0,4.36-.47,7.01-.47,11.37,0,3.11-.47,6.7-.47,9.5,0,1.71.16,3.12.93,3.74,2.49,2.49,14.02,2.65,20.87,2.65h1.87c2.18,0,2.96,2.18,2.96,4.83,0,11.99.47,24.29.47,35.51-.16.78-.47,1.25-1.24,1.4-.78.16-1.72.16-2.49.16-6.7,0-13.39.31-20.87.31h-3.9c-5.76,0-11.21.16-16.51.16Z"/>
  </g>
  <g>
    <path class="cls-4" d="M270.47,811.88h-15.87c-2.6,0-4.9-.29-7.5-.29-4.62,0-9.23.29-14.43.29-8.37,0-10.1-13.85-15.87-21.93-2.6-4.62-4.33-6.93-6.92-11.54-3.75-7.21-5.48-11.25-9.81-18.75-1.15-2.02-1.73-3.46-3.17-5.48-5.77-8.37-8.66-17.6-15.58-27.99-.58-.87-1.15-1.73-2.02-2.6-3.17,4.33-2.6,11.25-3.17,17.6v12.41c0,9.81-.29,15-.29,24.81v25.39c0,4.33-3.17,6.64-7.5,6.64h-.87c-4.9-.29-8.94-.29-12.41-.29-11.83,0-18.47,1.15-35.49,1.15h-.58c-2.31,0-3.46-1.15-3.46-3.17,0-12.12.58-26.83.58-40.97,0-21.06-.58-40.39-.58-61.74,0-6.64-.29-11.25-.29-16.45,0-8.66.29-18.18.29-27.41v-56.26c.29-2.6,6.92-4.04,9.23-4.33,4.9-.58,9.52-1.73,14.43-1.73,3.17,0,23.66-.29,26.83-.29,19.62,0,39.53,1.44,58.86,1.44,6.64.29,17.02,1.44,25.39,5.48,7.79,3.75,12.69,10.1,17.31,17.02,6.06,8.66,11.25,17.31,11.25,31.74,0,4.04-.29,15.87-2.6,19.33-.87,2.89-2.02,6.06-3.75,8.66-2.31,4.04-5.77,10.96-10.39,13.56-5.19,2.89-8.37,4.33-13.85,6.64-3.46,1.44-19.91,4.91-21.06,4.91,4.04,6.06,7.5,11.54,11.25,17.02,4.62,6.35,9.81,20.2,15.58,30.59,7.5,13.27,9.81,22.79,25.97,50.78.29.29.29.58.29,1.15,0,4.33-6.06,4.62-9.81,4.62ZM186.23,642.52h-1.73c-3.75,0-1.73,0-7.79,1.15-.29,2.31-.29,4.62-.29,6.93,0,5.19.58,15.58.87,21.06.58,0,1.15.29,1.73.29,1.15,0,2.88.29,5.19.29,10.39,0,20.2-.58,24.81-3.75,2.02-1.73,4.33-2.89,4.9-5.77.58-1.16.58-7.5.58-8.66,0-10.68-19.33-11.54-28.28-11.54Z"/>
    <path class="cls-4" d="M440.13,780.14c1.15,4.91,1.44,5.77,2.6,10.39,1.15,4.33,2.6,7.79,3.46,11.54.29,1.15.29,2.02.29,2.88,0,2.31-1.44,3.46-3.46,4.04-3.17,1.16-5.77,1.44-8.37,1.44-2.88,0-5.77-.29-9.23-.29h-2.02c-8.94.58-15.58,1.15-23.95,1.15-.87,0-1.73-.29-2.31-.57-.87-.58-1.44-2.31-1.73-4.04-.29-.58-.29-1.16-.58-2.02,0-.29-.29-.87-.29-1.16-4.9-19.04-5.19-27.12-8.65-44.43-3.46-17.31-.58-5.48-3.46-15.87-.29-.86-.87-1.44-1.44-2.02-1.15,0-5.19,0-6.64-.29-2.88,0-5.48-.29-8.66-.29h-2.88c-2.02,0-3.46-.29-5.48-.29-1.44,0-3.17.29-5.77.29-1.15,1.15-2.31.57-2.88,2.59-1.73,8.37-2.02,12.98-3.46,21.35-.87,6.64-1.44,11.25-2.31,16.73-.58,6.64-1.15,11.83-2.02,18.75-.29,1.73-.58,3.46-.87,5.19-.29,1.16-.87,2.31-1.44,3.18-.87.57-1.73,1.44-2.6,1.44-2.6.87-6.06,1.15-9.52,1.15s-7.5-.29-10.68-.29h-6.64c-2.6,0-5.48.29-8.65.29-4.62,0-8.94-.57-11.25-2.31-.29-.29-.29-.58-.29-.87,0-.87.29-1.73.29-2.31.29-1.15.29-2.31.58-3.46,1.15-5.48,2.31-9.81,2.88-14.14,0-.87.29-2.6.87-3.18,1.73-16.73,4.9-30.29,8.65-49.63,6.64-35.2,11.83-60.59,17.6-89.73,2.31-11.83,6.35-23.95,7.79-37.79.29-2.89,1.15-2.6,2.89-3.46h2.6c3.46-.86,6.06-1.15,9.81-2.02,1.73,0,3.75-.57,5.77-.86,1.44,0,16.45-.29,25.39-.29h5.77c5.48.58,10.68,1.73,15.87,2.31.87.29,1.73.57,2.31,1.44.87,1.44,1.73,2.89,2.02,4.33,2.02,7.5,3.17,15,4.9,22.5.87,5.19,2.02,10.68,3.46,15.58,5.19,15.29,6.92,29.72,10.67,46.45,1.73,8.08,3.17,16.73,4.9,24.81,2.31,11.54,6.06,20.2,8.95,33.18.87,4.91,1.73,8.66,3.17,14.43,1.44,5.48,2.88,9.23,4.04,14.14ZM374.35,702.82c0-.29.29-.29.29-.58,0-.57.29-.86.29-1.44,0-5.77-2.88-14.71-4.9-26.83-1.15-8.66-2.02-17.31-3.75-28.27-.29-1.15-.58-1.44-1.15-1.44s-.87.29-1.44.29c-.29,0-2.6.29-3.17,3.17-4.33,20.2-6.35,45.59-6.35,52.51v1.44c.29.29.29.57.29.86,0,1.44,3.75,1.73,6.64,1.73h3.17c3.17-.29,8.08-.86,8.08-.86.58-.29,2.02,0,2.02-.58Z"/>
    <path class="cls-4" d="M610.93,811.88h-15.87c-2.6,0-4.9-.29-7.5-.29-4.62,0-9.23.29-14.43.29-8.37,0-10.1-13.85-15.87-21.93-2.6-4.62-4.33-6.93-6.92-11.54-3.75-7.21-5.48-11.25-9.81-18.75-1.15-2.02-1.73-3.46-3.17-5.48-5.77-8.37-8.66-17.6-15.58-27.99-.58-.87-1.15-1.73-2.02-2.6-3.17,4.33-2.6,11.25-3.17,17.6v12.41c0,9.81-.29,15-.29,24.81v25.39c0,4.33-3.17,6.64-7.5,6.64h-.87c-4.9-.29-8.94-.29-12.41-.29-11.83,0-18.47,1.15-35.49,1.15h-.58c-2.31,0-3.46-1.15-3.46-3.17,0-12.12.58-26.83.58-40.97,0-21.06-.58-40.39-.58-61.74,0-6.64-.29-11.25-.29-16.45,0-8.66.29-18.18.29-27.41v-56.26c.29-2.6,6.92-4.04,9.23-4.33,4.9-.58,9.52-1.73,14.43-1.73,3.17,0,23.66-.29,26.83-.29,19.62,0,39.53,1.44,58.86,1.44,6.64.29,17.02,1.44,25.39,5.48,7.79,3.75,12.69,10.1,17.31,17.02,6.06,8.66,11.25,17.31,11.25,31.74,0,4.04-.29,15.87-2.6,19.33-.87,2.89-2.02,6.06-3.75,8.66-2.31,4.04-5.77,10.96-10.39,13.56-5.19,2.89-8.37,4.33-13.85,6.64-3.46,1.44-19.91,4.91-21.06,4.91,4.04,6.06,7.5,11.54,11.25,17.02,4.62,6.35,9.81,20.2,15.58,30.59,7.5,13.27,9.81,22.79,25.97,50.78.29.29.29.58.29,1.15,0,4.33-6.06,4.62-9.81,4.62ZM526.69,642.52h-1.73c-3.75,0-1.73,0-7.79,1.15-.29,2.31-.29,4.62-.29,6.93,0,5.19.58,15.58.87,21.06.58,0,1.15.29,1.73.29,1.15,0,2.88.29,5.19.29,10.39,0,20.2-.58,24.81-3.75,2.02-1.73,4.33-2.89,4.9-5.77.58-1.16.58-7.5.58-8.66,0-10.68-19.33-11.54-28.28-11.54Z"/>
    <path class="cls-4" d="M702.4,814.76c-2.59.29-5.19.29-7.5.29-3.46-.29-6.93-.29-10.39-.29-41.55,0-54.24-30.01-57.7-69.25-.58-4.33-.87-8.94-.87-13.27v-8.37c0-28.27,3.46-54.53,9.23-77.04,1.73-6.92,4.9-13.85,8.37-20.2,10.39-18.47,23.66-27.41,50.78-29.43,3.17-.29,6.35-.58,9.52-.58,23.66,0,45.87,10.1,53.37,25.39,5.77,12.69,9.23,23.95,10.68,40.97,0,1.73.29,3.46.29,5.19.87,12.41,1.15,26.54,1.15,40.39v4.33c0,32.6-.29,62.9-15.58,80.79-10.96,13.27-28.56,21.06-51.36,21.06ZM705,647.13c-1.44-1.44-3.17-2.31-5.48-2.31h-.29c-4.62.58-9.81,4.62-12.98,15-1.15,4.04-2.02,8.37-2.31,12.7-1.15,6.35-.58,13.56-1.44,20.2-.29,6.93-.58,4.91-.58,9.52v3.18c0,3.17.29,5.77.29,8.95.29,9.81.29,10.1,1.44,19.33.57,7.21,5.77,29.72,14.71,29.72,14.14,0,15.58-19.33,16.16-32.32.86-10.1,1.44-9.23,1.44-21.35v-19.33c-.29-8.08-3.18-35.49-10.96-43.28Z"/>
  </g>
  <path class="cls-3" d="M749.37,391.5c.25,2.72,3.49,4.7,3.36,7.41-.34,7.23-1.24,14.43-1.39,21.66-.1,4.92.75,9.85,1.03,14.78.08,1.43-.03,3.04-.63,4.3-2.16,4.6-.97,9.53-1.66,14.26-.59,4.03-.82,8.12-1.45,12.14-.6,3.78-1.57,7.44.53,11.16,1.06,1.88,1.62,2.84,3.58.93,1.71-1.67,4.16-1.96,5.93-.51l33.63,3.68c4.25-.33,8.62-.19,12.83.48,2.3.36,4.39,2.15,6.51,3.42.33.2.55,1.08.42,1.51-1.08,3.49-2.59,6.74-5.89,8.7-.58.35-1.38.45-2.08.46-1.82.02-3.64-.15-5.45-.09-.6.02-1.19.52-1.78.79.31.64.54,1.35.96,1.91.32.42,1,.57,1.33,1,.29.38.48,1.01.39,1.46-.06.3-.67.53-1.08.69-.24.09-.56.04-.83-.04-3.7-1-5.55.59-6.63,4.16-1.11,3.67-4.9,3.77-7.84,4.88-.29.11-.78-.41-1.2-.56-2.32-.79-4.68-1.46-6.96-2.35-1.75-.68-3.7-1.28-5.03-2.51-2.65-2.44-7.19-2.78-10.17-.66-1.24.88-3.01,1.03-4.56,1.45-1.65.44-3.3,1-4.98,1.16-2.79.26-5.66.66-8.39.26-5.4-.79-11.03-1.39-15.07-5.76-.83-.9-1.71-2.71-1.34-3.55.62-1.42,2.05-2.97,3.47-3.43,1.79-.59,3.92-.14,5.43-.14-2.28-1.77-4.82-3.79-7.41-5.75-1.6-1.2-1.58-2.65-1.15-4.38s.69-3.41.71-5.16c.04-5.65-.04-11.3-.13-16.95-.05-3.27-.08-6.55-.39-9.8-.09-.96-.97-1.97-1.73-2.72-1.75-1.74-2.3-3.73-1.9-6.14,1.16-6.92,2.3-13.84,3.33-20.79l-1.6-7.33c-1.59-1.93-10.65-29.74-11.9-31.87-.95-1.62-1.09-3.71-1.63-5.58-1.57-5.4-3.18-10.79-4.71-16.21-.3-1.05-.38-2.14-.38-3.24,0-2.44-1.18-4.08-3.48-4.45-3.59-.58-7.23-.77-10.84-1.19-2.74-.31-5.51-1.15-8.21-.94-2.12.17-4.16,1.56-6.21,2.47-2.69,1.2-5.31,2.58-8.06,3.61-.76.29-2.15-.1-2.79-.68-1.64-1.49-2.89-1.17-4.62-.06-7.18,4.59-15.34,6.6-23.46,8.7-.71.19-1.41.44-2.13.62-1.4.35-2.81.66-4.24.68-1.17.58-2.27,1.41-3.51,1.7-7.68,1.78-15.46,3.15-23.03,5.29-2.33.66-4.1,3.32-6.36,5.26l-3.22,3.35c-3.4,1.94-6.72,4.03-10.17,5.87l-27.64,18.94c-7.5,1.27-12.71,6.22-18.08,10.96-1.79,1.58-3.84,2.85-5.72,4.34-.58.46-.87,1.29-1.44,1.75-4.2,3.42-8.32,6.94-12.72,10.08-1.64,1.18,1.06,35.48,2.36,36.86l4.51,12.87c.26.74.36,1.52.48,2.3.45,2.84,5.08,7.48,4.35,9.84-.18.59,1.66,7.26,1.7,7.87.12,2.27.8,4.56.66,6.8-.44,6.8-1.4,13.5-2.8,20.23-1.58,7.59,1.1,16.09-.06,23.7-.46,3.06-.14,6.16.55,9.18,1.38,6.05-.04,12.82,3.65,18.45,1.2,1.84,2.68,2.32,4.76,2.1,7.63-.8,15.26-1.89,22.91-2.07,4.56-.11,8.03-1.06,10.17-5.16,4.59,2.18,6.25,6.09,4.85,10.41-1.53,4.74-4.37,8.97-10.45,9.03.24,2.94.5,5.45,3.22,7.11,1.21.74,2.62,1.92,1.69,3.97-.87,1.91-1.69,3.38-4.08,4.07-11.06,3.19-21.42.77-31.69-3.3-2.76-1.09-5.77-1.6-8.42-2.88-1.59-.77-2.69-2.53-4.02-3.85-1.23-1.21-2.28-2.71-3.72-3.58-6.19-3.74-10.74-8.89-13.49-15.53-.63-1.53-.4-3.52-.22-5.26.66-6.32,1.57-12.61,2.15-18.94.25-2.68-.75-5.01-2.2-7.49-1.58-2.71-3.01-5.73-2.63-9.52.94-9.66,1.4-19.4,1.45-29.11.02-3.73-1.1-7.66-2.52-11.16-4.85-11.96-10.02-23.8-15.17-35.63-.84-1.93-2.37-3.56-3.24-5.49-.85-1.87-1.26-3.93-1.95-6.19-1.17.78-2.74,1.67-4.13,2.8-2.95,2.4-5.5,5.49-8.78,7.24-3.78,2.02-7.66,4.77-12.5,3.53-.63-.16-1.3-.17-1.92.01-4.58,1.35-8.01-1.1-11.62-3.24-1.52-.9-3.31-1.41-5.04-1.87-5.26-1.43-10.62-2.97-16.08-2.1-5.67.9-11.1-.38-16.62-.9-5.58-.52-10.74.25-15.26,3.77,2.14,1.18,4.26,2.21,6.22,3.45,1.23.78,2.99,2.37,3.84,3.55l3.81,4.1c-.18.7,10.41,8.98,10.82,9.53,5.67,7.7,5.82,16.7,5.2,25.5-.78,11.18-2.59,22.28-4.06,33.41-.38,2.88.57,6.07-1.8,8.55-.31.32-.41,1.12-.67,1.15-4.32.55-4.46,4.71-6.02,7.38-3.68,6.25-6.88,12.8-10.13,19.31-3.43,6.86-7.36,13.57-9.84,20.78-2.85,8.28-4.41,17.02-6.37,25.6-.74,3.23.18,4.03,3.33,3.33,1.79-.4,3.52-1.1,5.3-1.58,1.16-.31,2.38-.65,3.56-.62,3.12.08,3.23.11,4.88-1.73,2.77,0,5.32.58,7.44-.13,3.71-1.25,7-.11,10.32.89.66.2,1.24,2.39,1.02,3.5-.6,3.13-3.32,4.08-6,4.75-1.5.38-3.11.3-4.62.64-.62.14-1.12.82-1.67,1.25.49.59.86,1.43,1.49,1.72,1.5.69,3.28.85,4.67,1.7,3,1.83,5.86,3.88,8.69,5.98,1.24.92.83,4.04-.89,5.23-1.81,1.25-3.83,2.4-5.93,2.95-6.46,1.68-12.98,1.83-19.69,1.24-7.64-.67-12.28-6.01-17.94-9.81-1.92-1.29-3.58-2.97-5.47-4.29-.6-.42-1.62-.49-2.4-.37-4.39.68-7.47-1.6-7.96-5.98-.6-5.43,1.08-10.42,3.09-15.29,2.26-5.45,4.81-10.77,7.18-16.18.71-1.63,1.43-3.3,1.77-5.03,2.27-11.48,6.62-22.17,11.34-32.82,3.56-8.03,6.01-16.55,9.02-24.82,2.14-5.88,4.41-11.71,6.58-17.57.52-1.4.8-4.71,1.49-6l1.21-12.19c-.43-1.66-1.64-9.46-3.18-10.2l-9.18-12.08c.25-3.41-14.14-16.22-17.56-17.07-.33-.08-.81-.13-1.03.04l-9.82.32c-2.98,2.62-6.59.44-9.89,1.26-2.69.66-5.87.22-8.63-.5-3.53-.93-6.28-.2-9.1,1.92-2.37,1.79-4.9,3.53-7.63,4.61-4.77,1.89-10.72-1.03-12.58-5.92-.89-2.34-1.48-4.82-2.03-7.27-.14-.63.35-1.41.01-1.88-.93-2.13-1.89-4.24-2.77-6.38-.24-.59-.18-1.29-.34-1.93-1.22-4.84-2.95-5.56-7.46-3.01,1.29,3.6-.08,6.39-2.79,8.85-1.85,1.68-4.19,3.25-2.83,6.48.23.55-.2,1.45-.47,2.13-1.26,3.28-2.18,6.77-3.97,9.73-2.17,3.59-4.45,7.49-9.01,8.6-4.18,1.02-8.46-1.51-9.88-5.62-.66-1.93-1.18-3.91-1.85-6.14-4.34.1-8.2,1.8-10.64,5.67-2.94,4.67-7.08,6.36-12.31,6.31-3.23-.03-4.38,1.26-3.71,4.53.89,4.37,2.28,8.64,3.11,13.02.62,3.26.91,6.63.99,9.95.1,3.82-.46,7.67-.26,11.48.27,5.03-1.23,9.23-4.85,12.6-8.47,7.89-16.94,15.78-25.54,23.52-10.84,9.76-21.91,19.25-32.69,29.07-7.1,6.46-12.86,14.06-16.98,22.78-1.21,2.55-1.33,5.67-2.71,8.08-2.39,4.16-6.05,6.83-11.16,6.88-3.5.04-5.87-1.51-7.76-4.48-2.63-4.14-5.18-8.17-5-13.37.09-2.57.78-4.68,2.61-6.58,1.48-1.53,2.61-3.39,3.82-5.16,1.32-1.93,2.43-4.02,3.84-5.88,3.34-4.4,7.09-8.02,13.37-6.68.73.16,2.07-.57,2.48-1.26,3.57-6.15,9.66-9.59,14.82-14,4.75-4.06,9.93-7.63,14.63-11.76,8.52-7.47,16.83-15.17,25.2-22.81,1.66-1.51,3.1-3.29,4.84-4.69,3.66-2.94,4.81-6.73,5.59-11.32,1.34-7.84.19-15.27-1.39-22.8-.32-1.53-.44-3.1-.63-4.52-.44-.15-.65-.31-.77-.26-4.99,2.26-10.06,4.38-14.9,6.93-1.36.72-2.1,2.68-3.07,4.1-3.54,5.2-6.1,11.27-12.49,13.94-.63.26-1.3.4-1.98.44-2.39.12-4.85-.07-7.13.48-3.89.93-6.34-.88-8.73-3.47-1.89-2.05-4.24-3.72-5.83-5.96-.74-1.04-.65-3.24-.08-4.53.91-2.05.27-3.03-1.25-4.2-4.66-3.57-9.51-6.97-13.79-10.96-5.53-5.17-10.28-11.07-13.55-18.03-.35-.74-.78-1.74-1.41-2-3.57-1.44-4.21-5.37-6.64-7.63-4.48-4.15-3.66-9.57-3.76-14.57-.08-3.98,1.48-8.05,4.62-10.8,1.39-1.21,3.72-1.7,5.67-1.84,3.69-.25,6.13-2.17,7.77-5.16,2.38-4.32,4.95-8.63,6.58-13.25,1.27-3.62,1.36-7.7,1.72-11.6.17-1.87-2.74-11.84-4.17-10.28-2.35,2.56-11.16,1.02-12.99.21-5.45-2.42-2.27-2.55-7.84-4.6-3.22-1.18-7.91-1.26-11.4-1.48-5.87-.37-12.17,4.84-18.05,4.74-6.07-.1-12.16.29-18.21-.07-7.55-.44-15.07-1.34-22.59-2.18-7.42-.83-14.8-2.22-22.23-2.63-5.96-.33-11.89.8-17.48,3.29-2.7,1.2-5.53,2.25-8.4,2.9-1.92.43-4.07.28-6.03-.07-2.27-.41-4.48-1.25-6.66-2.06-2.9-1.07-2.4-3.93-2.98-6.18-.18-.7.09-1.54-.15-2.2-1.25-3.51-.75-5.53,2.18-7.61,2.72-1.93,5.46-3.86,8.28-5.64,4.41-2.78,14.01-2.05,18.14,1.01,1.07.79,5.33,4.49,6.62,4.29l25.64,2.54c5.56-.58,10.06-.06,15.6-.85,8.15-1.17,11.96-2.37,19.88-.42,10.94,2.69,27.83-4.4,38.47-.75,5.33,1.83,10.47,3.78,16.13,3.69,2.32-.03,4.5-.59,6.94.24,2.15.73,4.31-.16,5.91-2.56,1.31-1.97,3.61-3.37,5.68-4.69,1.79-1.14,3.9-1.78,5.84-2.71,1.71-.82,3.32-1.76,1.63-4.04,6.65-3.26,9.07-9.24,11.55-15.42,2.73-6.83,5.95-13.48,9.3-20.04,2.49-4.88,5.36-9.59,8.37-14.17,1.7-2.6,4.02-4.79,6.47-7.65l-13.25-2.56c-1.18-.52-13.62-4.92-14.85-5.24-4.88-1.29-9.9-2.15-14.65-3.79-4.71-1.62-8.08.68-11.2,3.22-5.54,4.52-10.7,9.49-16.05,14.24-4.12,3.66-8.14,7.46-12.49,10.84-7.64,5.94-11.38,5.92-20.84,9.02-4.75,5.27-7.08,4.12-12.99,6.52-3.67,1.49-11.34,1.55-15.2,2.54-4.6,1.18-9.31,3.86-13.94,4.93-.45.1-5.2,2.59-5.51-.66-.31-3.2.66-6.39,2.7-8.87l.66-.81c1.82-2.21,4.41-3.53,7.21-4.07,1.33-.26,2.59-.78,3.71-1.92.68-.7,1.98-.79,3.09-1.84-2.54-.75-5.03-1.74-7.62-2.2-4.87-.87-7.96-3.35-8.69-8.41-.3-2.08.43-3.86,2.55-3.92,4.34-.13,8.83-.43,13.01.5,6.63,1.48,13.07,3.81,18.75,7.9,1.25.9,3.52,1.17,5.03.73,2.99-.87,5.91-2.2,8.63-3.76,4.22-2.43,45.1-32.86,48.9-35.87l3.28-3.31c.79-.79,1.69-1.48,2.74-1.87,1.06-.39,2.35-1.53,3.53-1.97,2.09-.78,4.26-1.37,6.42-1.93,2.12-.55,3.86-.17,4.78,2.17.77,1.96,2.18,3,4.4,3.33,8.78,1.31,17.56,2.69,26.24,4.5,3.44.72,6.78,1.79,10.1,2.96,2.4.85,3.8.64,4.76-1.63,2.84-6.78,5.75-13.54,8.6-20.32.87-2.07,1.65-4.17,2.76-6.98l4.66-5.09c5.26-3.78,8.99-8.96,11.2-15.35,1.17-3.38,3.52-6.59,6.02-9.22,2.64-2.77,6.28-4.55,9.35-6.92.61-.47,1.18-1,1.73-1.55,2.88-2.87,5.65-5.86,8.64-8.62.69-.63,2.15-.34,3.06-.83,3.85-2.04,7.51-4.48,11.46-6.28,4.23-1.92,8.71-3.28,13.08-4.9.4-.15.76-.39,1.17-1.31l.81-1.05c-.2-.58-.26-.77-.46-1.35-3.82-1.07-7.58-2.66-11.74-.49-5.69,2.98-12.78,2.1-17.5-2.26-4.54-4.19-10.66-5.16-16.57-5.55-3.18-.21-12.9-1.52-14.59,2.61-3.62,2.26-6.13,6.14-9.5,8.37l-16.32,14.04c-3.21,1.26-6.83,1.88-8.63,5.47-.44.87-1.3,1.58-2.07,2.22-3.71,3.07-7.36,6.24-11.24,9.09-3.59,2.64-7.48,4.87-11.17,7.4-1.36.93-3.02,1.92-3.65,3.3-1.92,4.21-5.69,5.43-9.48,6.98-2.62,1.07-4.99,2.8-7.47,4.21-.8.45-1.58,1.01-2.44,1.27-4.84,1.46-9.53,3.08-13.37,6.65-2.31,2.14-5.12,1.49-6.5-1.35l-4.3-4.48c-.77-.77-1.46-1.64-2.32-2.28-1.2-.89-2.43-1.91-3.81-2.34-4.09-1.25-5.38-5.25-8.06-7.86-1.03-1-.74-2.2.75-2.53,1.42-.31,2.92-.38,4.39-.37,1.49.01,2.98.43,4.45.31.52-.04,1.39-1.16,1.36-1.74-.21-3.6,3.24-6.72,6.87-5.88,9.24,2.13,18.56,1.79,27.88.94,3.48-.32,4.87-2.04,5.33-5.6.1-.79.7-1.82,1.34-2.29,7.74-5.66,15.53-11.24,23.32-16.83,2.17-1.56,4.37-3.08,6.72-4.73l5.72-4.85c5.87-4.48,11.33-9.5,17.35-13.77,4.9-3.48,10.19-6.46,15.49-9.32,2.85-1.54,5.76-2.93,8.73-4.22,13.72-5.94,10.27-5.33,15-.68,2.02,1.99,3.83,3.04,6.56,3.5,8.57,1.46,17.06,3.35,25.61,4.89,9.64,1.74,19.33,3.26,28.98,4.91,1.65.28,3.51.36,4.86,1.21,5.31,3.33,9.64.27,13.57-2.35,10.04-6.67,20.36-12.58,32.16-15.47,1.25-.31,3.25-.97,4.41-1.53l52.45-8.8c3.46-1.05,7.11-1.44,10.66-2.17.76-.16,1.48-.55,2.22-.84-.37-.8-.54-1.82-1.15-2.35-1-.87-2.27-1.42-3.67-2.24-2.22-4.63-.05-14.34-5.71-15.37-2.17-.39-10.58,2.28-13.02-.36-1.09-1.18-2.37-2.16-3.94-2.5l-5.15-1.18c-6.9-1.59-23.1,12.88-29.75,14.19l-5.91,1.06c-.93-.28-67.34,7.61-68.23,7.23-3.38-1.43-18.88,5.27-18.65,1.45l2.97-5.03c.47.21,9.4-6.1,10.08-6.13,0,0,0,0,0,0-4-1.5-3.18-7.38,1-7.94l14.33-1.9c.76-.1,1.53.04,2.24.34,5.72,2.4,11.65,1.53,17.58,1.1,12.48-.9,25-1.4,37.42-2.78,16.78-1.86,23.51-15.94,40.22-18.41,2.26-.34,3.88,1.11,5.93-.24,1.59-1.05,4.25-1.83,6.44-1.38l12.67,2.75c9.75,5.06,19.02,6,29.61,9.17,9.64,2.88,19.39,5.36,29.08,8.09,6.11,1.72,12.18,3.57,18.26,5.4.51.15,3.91.19,4.01.58.91,3.44,3.94.28,6.55.64,7.36.99,11.04-.17,17.74-3.6,3.47-1.78,7.54.28,11.25-1.03,1.99-.7,4.11-.95,6.19-.66l14.22.2c.98.14,9.78,1.89,10.77,1.8,3.59-.33,6.75.54,9.9.24.84-.08,1.68-.4,2.5-.32,7.83.76,15.31-1.07,22.84-2.8,1.19-.27,2.63,0,3.81.42,2.45.89,4.58,1.62,7.46.71,1.37-.44,5.14,2,5.33,3.45.53,4.1,3,5.27,6.17,5.62,9.6,1.05,18.53,4.42,27.35,7.97,5.43,2.18,10.39,5.11,14.17,9.96,4.25,5.45,9.65,9.87,15.67,13.25,4.73,2.66,9.21,5.77,13.72,8.81,2.3,1.56,2.74,3.96,2.14,6.5-.69,2.93.57,4.84,2.53,6.92,5.85,6.24,10.23,13.45,13.03,21.59.51,1.5,1.36,2.88,1.83,4.39.81,2.62,1.75,5.26,2.09,7.96.45,3.59,1.95,6.29,5.02,8.14.16.09.36.2.43.35,2.71,5.78,7.53,10.98,4.99,18.18-.45,1.28-1,2.68-1.9,3.63-1.92,2.02-1.65,3.78-.38,6.03,1.15,2.04,2.22,4.37,2.42,6.66.43,4.77-3.28,6.83-6.84,8.52-1.92.91-3,1.94-3.77,4.03-1.67,4.52-3.54,8.96-7.22,12.45-1.31,1.24-1.58,3.54-2.47,5.27-1.03,2,.55,3.44.76,5.05.35,2.65-.35,5.71-1.45,8.22-1.05,2.37-3.19,4.26-4.73,6.2,1.97,1.69,4.63,2.89,4.38,6.14-.12,1.61,11.77,55.42,10.43,56.31l1.79,9.3ZM425.39,290.67c2.23,3.46,4.36,6.75,6.48,10.05,3.92,6.11,7.82,12.24,11.75,18.34,1.13,1.75,2.66,3.03,4.86,2.61,3.38-.64,6.8-1.23,10.05-2.32,5.36-1.79,10.63-3.89,15.89-6,4.9-1.97,9.76-4.04,14.57-6.23,2.08-.95,3.9-3.09,5.99-3.32,6.56-.71,13.19-1.11,18.78,3.81,1.59,1.4,3.67,2.13,6.09,1.57,3.72-.86,7.46-1.66,11.25-2.15,5.51-.71,10.94-1.69,16.12-3.77,1.67-.67,3.36-1.31,4.94-2.16,2.46-1.34,4.83-2.83,7.22-4.3,1.54-.95,2.98-2.06,4.54-2.98,1.85-1.09,3.7-2.74,5.67-2.94,5.34-.55,10.76-.66,16.13-.51,2.12.06,4.2,1.31,6.33,1.9,1.31.36,2.79.93,4.01.64,3.62-.85,7.25-1.81,10.68-3.21,4.99-2.03,9.89-4.33,14.69-6.78,3.02-1.54,5.75-3.67,8.71-5.35,2.51-1.42,5.48-2.19,7.67-3.96,2.68-2.16,5.18-1.73,7.73-.56,4.5,2.06,14.75-1.39,16.91-5.88.08-.17.12-.36.2-.53,2.12-4.77,5.17-8.26,10.32-10.33,8.13-3.26,15.62-7.87,22.25-13.66,1.71-1.5,4.13-4.29,5.24-6.28,4.34-7.72,4.07-16.05,2.08-24.22-1.44-5.9-3.95-11.44-8.17-16.06-3.78-4.14-7.09-8.8-12.55-10.99-.33-.13-.59-.46-.9-.66-4.74-2.88-9.52-5.71-14.21-8.66-1.62-1.02-3.05-2.36-4.84-3.78-.63.04-2.05.47-3.25.12-3.71-1.07-7.34-2.41-10.97-3.71-1.27-.45-2.43-1.46-3.7-1.6-3.62-.4-7.28-.41-10.91-.71-1.27-.11-2.62-.39-3.74-.97-3.3-1.72-6.71-1.67-10.06-.63-5.85,1.82-11.57,4.02-17.43,5.8-2.13.64-4.41,2.48-6.07.75-1.45.78-2.41,1.56-3.51,1.83-3.09.76-6.31,1.08-9.34,2.01-2.46.76-4.69,2.24-7.08,3.24-5.02,2.1-10.1,4.07-15.13,6.16-4.37,1.82-8.74,3.66-13.04,5.65-1.32.61-2.41,1.71-3.29,2.36-1.48.15-2.91.04-4.17.46-3.18,1.06-6.24,2.48-9.42,3.5-1.09.35-2.44-.17-3.65-.07-1.16.09-3.28.43-3.29.73-.1,2.19-1.85,2.09-3.03,2.26-3.96.57-7.35,2.61-11.02,3.88-.93.32-2.11-.03-2.99.35-1.85.81-3.53,2.02-5.38,2.86-2.4,1.1-4.9,2-7.34,3.01-4.53,1.89-9.01,3.87-13.57,5.69-2.06.82-4.11,1.69-6.07,2.73-4.9,2.61-9.67,5.47-14.53,8.16-.64.35-1.63.1-2.23.48-1.37.88-2.48,2.24-3.92,2.94-4.65,2.25-9.35,4.29-13.08,8.13-6.57,6.78-13.32,13.33-16.2,22.79-.9,2.95-2.77,5.59-3.91,8.49-2.15,5.47-1.45,10.78,1.57,15.76.91,1.49,2.13,2.79,3.08,4l.24,2.18ZM313.79,370.49c1.71-.53,3.41-1.1,5.13-1.59,3.54-1.02,7.24-1.09,10.78-2.43,4.68-1.78,9.6-2.91,14.46-4.17,1.2-.31,2.56-.05,3.88-.05.62-.57,1.24-1.56,2.12-1.9,4.32-1.69,8.74-3.11,13.05-4.81,3.45-1.36,6.88-2.8,10.17-4.51,4.83-2.51,9.32-5.58,14.81-6.87,3.36-.79,6.42-2.89,9.6-4.42.29-.14.55-.36.73-.63,2.89-4.44,4.03-9.37,3.17-14.53-1.9-11.43-5.75-22.07-12.51-31.9-5.19-7.53-9.93-15.37-13.82-23.65-4.24-9.03-8.62-17.23-15.82-23.62-6.2-5.5-12-11.5-18.49-16.63-6.42-5.07-13.04-10.3-20.39-13.66-6.54-2.98-14.19-3.51-21.36-5.08-.38-.08-.85.21-1.27.35-1.95.64-3.87,1.69-5.86,1.85-2.85.23-5,1.28-6.7,3.52-.27.36-.58.7-.96.92-1.43.84-3.19,1.28-4.38,2.36-3.04,2.77-5.99,5.66-8.72,8.73-3.51,3.95-6.93,8-10.26,12.11-2.83,3.5-7.21,9.43-9.82,13.11-3,4.23-6.11,8.4-8.82,12.81-2.86,4.66-5.34,9.56-7.92,14.4-1.84,3.47-3.66,6.95-5.4,10.46-2.35,4.74-4.88,9.4-7.11,14.2-.81,1.75-1.28,3.67-1.77,5.55-.36,1.34-.48,2.75-.74,4.12-.99,5.11-2.16,10.19-.96,15.47.37,1.61.06,3.38.06,4.5.8,1.12,1.68,1.86,1.92,2.77,1.73,6.42,5.17,11.55,10.2,15.96,4.48,3.92,8.21,8.71,13.73,11.38,1.83.88,3.92,1.54,5.37,2.87,4.27,3.88,9.52,4.11,14.71,4.29,5.4.19,10.84-.52,16.21-.12,9.87.73,19.68,1.83,29.46-.77.82-.22,1.84.31,2.77.49l.75-.89ZM491.43,148c-2.56,2.71-8.4,3.4-11.75,1.44-1.3-.76-2.61-1.91-3.99-2.03-4.76-.4-5.77,3.55-11.52,6.02-2.46,1.06-4.19,3.63-6.76,3.6-1.74-.02-3.32-.46-4.65,1.27-.49.64-1.8,1.76-5.91,1.06-1.71-.29-3.57-.92-5.28-.64l-5.91,2.54c-4.48,2.32-9.92,1.05-14.65,2-4.98.99-10.15.47-15.1,2.41-3.65,1.42-7.74,1.7-11.61,2.63-1.53.36-3.36.69-4.37,1.72-2.75,2.77-6.49,3.81-9.57,6.04-4.78,3.46-10.17,6.1-15.4,8.91-2.56,1.38-5.26,3.12-8.01,3.36-4.87.43-9.84-.19-14.76-.3-.91-.02-1.83.24-2.74.38.3,1.02.31,2.29.94,3.02,1.58,1.82,3.37,3.49,5.21,5.06,4.76,4.07,9.37,8.36,14.44,12.01,5.78,4.16,12.76,5.67,19.53,7.47,1.38.37,2.96.52,4.35.26,5.59-1.04,11.19-2.12,16.71-3.48,10.03-2.45,20-5.14,30.01-7.66,3.66-.92,7.42-1.47,11.04-2.51,6.25-1.8,12.42-3.89,18.64-5.8,5.78-1.77,11.64-3.31,17.38-5.21,3.92-1.3,7.62-3.22,11.53-4.55,4.32-1.47,8.83-2.42,13.15-3.89,6.42-2.18,12.73-4.72,19.14-6.94,5.99-2.07,12.13-3.71,18.07-5.9,11.09-4.09,22.07-8.49,33.14-12.65,2.43-.91,5.31-.85,7.53-2.06,6.37-3.47,12.5-7.39,18.75-11.09,1.44-.85,2.99-1.5,4.49-2.22,3.03-1.45,6.11-2.8,9.08-4.36,1.74-.91,1.46-2-.25-2.74-.59-.25-1.24-.47-1.87-.5-5.66-.25-11.34-.83-16.98-.55-6.12.3-12.21,1.37-18.3,2.17-6.34.83-12.67,1.76-19,2.61-3.04.41-6.31-.08-9.13,1.13-3.08,1.32-6.45.78-9.59,1.53-2.42.58-4.67,1.84-7.06,2.55-.7.21-1.65-.43-2.72-.75-1.2.86-2.73,2.2-3.76-.68-5.27,2.28-10.43-1.56-15.61.73-4.8,2.12-10.06,3.19-15.41,4.82l-1.48-.25ZM238.82,395.9c-2.14-4-3.31-7.35-6.94-8.71-.59-.22-1.37-1.07-1.36-1.61.07-3.14-2.08-4.74-4.06-6.41-2.1-1.78-4.22-3.54-6.42-5.19-4.53-3.41-9.04-6.84-13.67-10.11-2.09-1.47-7.2-.93-9.07.78-.41.37-.62,1.18-.55,1.73.46,3.5-.03,6.89-.38,10.39-.56,5.58-4.17,8.8-7.61,12.27-1.71,1.73-3.89,2.5-6.45,1.63-.74-.25-1.66.04-2.49.01-1.87-.06-3.8.1-5.58-.32-2.93-.7-5.85.45-6.63,3.34-.5,1.84-.2,3.88-.61,5.76-.92,4.19-1.92,8.22-4.04,12.2-2.76,5.17-5.95,9.72-9.94,13.93-1.91,2.01-4.05,4.75-4.18,7.26-.17,3.23,1.04,6.85,2.63,9.77,1.74,3.19,4.69,5.7,6.94,8.63,3.11,4.05,6.17,8.15,9.06,12.35,3.22,4.69,6.38,5.85,11.67,4.02,5.9-2.04,10.48-6.03,15.05-10.05,3.63-3.2,6.96-6.79,10.83-9.65,2.33-1.72,5.41-2.46,8.19-3.52,1.71-.65,1.99-1.63,1.81-3.44-1.24-12.45-6.94-23.45-11.31-34.85-2.11-5.51.65-12.13,5.96-12.06,5.51.07,11.01.49,16.51.84,3.99.25,7.98.64,12.65,1.02Z"/>
  <path class="cls-1" d="M767.84,387.38c.25,2.72,3.5,4.7,3.37,7.41-.34,7.23-1.25,14.43-1.4,21.66-.1,4.92.76,9.85,1.04,14.78.08,1.43-.03,3.04-.63,4.3-2.17,4.6-.97,9.53-1.67,14.26-.59,4.03-.82,8.12-1.46,12.14-.6,3.78-1.58,7.44.54,11.16,1.07,1.88,1.63,2.84,3.59.93,1.72-1.67,4.18-1.96,5.95-.51l33.75,3.68c4.27-.33,8.65-.19,12.88.48,2.31.36,4.4,2.15,6.53,3.42.34.2.55,1.08.42,1.51-1.08,3.49-2.6,6.74-5.91,8.7-.59.35-1.38.45-2.09.46-1.82.02-3.65-.15-5.47-.09-.6.02-1.19.52-1.78.79.31.64.54,1.35.96,1.91.32.42,1.01.57,1.33,1,.29.38.48,1.01.39,1.46-.06.3-.68.53-1.08.69-.24.09-.57.04-.83-.04-3.72-1-5.57.59-6.65,4.16-1.11,3.67-4.91,3.77-7.86,4.88-.29.11-.78-.41-1.21-.56-2.33-.79-4.7-1.46-6.99-2.35-1.76-.68-3.72-1.28-5.05-2.51-2.66-2.44-7.21-2.78-10.2-.66-1.24.88-3.02,1.03-4.58,1.45-1.65.44-3.31,1-5,1.16-2.8.26-5.68.66-8.42.26-5.42-.79-11.07-1.39-15.12-5.76-.83-.9-1.71-2.71-1.34-3.55.62-1.42,2.06-2.97,3.48-3.43,1.8-.59,3.94-.14,5.45-.14-2.29-1.77-4.84-3.79-7.44-5.75-1.6-1.2-1.58-2.65-1.16-4.38.42-1.69.7-3.41.71-5.16.04-5.65-.04-11.3-.13-16.95-.05-3.27-.08-6.55-.39-9.8-.09-.96-.98-1.97-1.73-2.72-1.75-1.74-2.31-3.73-1.91-6.14,1.16-6.92,2.31-13.84,3.34-20.79l-1.6-7.33c-1.6-1.93-10.69-29.74-11.95-31.87-.95-1.62-1.09-3.71-1.64-5.58-1.57-5.4-3.19-10.79-4.73-16.21-.3-1.05-.38-2.14-.38-3.24,0-2.44-1.18-4.08-3.49-4.45-3.6-.58-7.26-.77-10.88-1.19-2.75-.31-5.53-1.15-8.23-.94-2.13.17-4.18,1.56-6.24,2.47-2.7,1.2-5.32,2.58-8.08,3.61-.77.29-2.16-.1-2.8-.68-1.65-1.49-2.9-1.17-4.63-.06-7.2,4.59-15.4,6.6-23.54,8.7-.72.19-1.42.44-2.13.62-1.41.35-2.82.66-4.26.68-1.17.58-2.28,1.41-3.52,1.7-7.7,1.78-15.52,3.15-23.11,5.29-2.34.66-4.12,3.32-6.38,5.26l-3.23,3.35c-3.41,1.94-6.74,4.03-10.2,5.87l-27.73,18.94c-7.53,1.27-12.75,6.22-18.14,10.96-1.8,1.58-3.86,2.85-5.74,4.34-.58.46-.87,1.29-1.45,1.75-4.21,3.42-8.35,6.94-12.76,10.08-1.65,1.18,1.06,35.48,2.37,36.86l4.52,12.87c.26.74.36,1.52.48,2.3.45,2.84,5.1,7.48,4.37,9.84-.18.59,1.67,7.26,1.7,7.87.12,2.27.8,4.56.66,6.8-.44,6.8-1.41,13.5-2.81,20.23-1.58,7.59,1.1,16.09-.06,23.7-.47,3.06-.14,6.16.55,9.18,1.39,6.05-.04,12.82,3.66,18.45,1.21,1.84,2.69,2.32,4.77,2.1,7.66-.8,15.31-1.89,22.99-2.07,4.57-.11,8.05-1.06,10.21-5.16,4.6,2.18,6.27,6.09,4.87,10.41-1.54,4.74-4.39,8.97-10.49,9.03.24,2.94.5,5.45,3.23,7.11,1.21.74,2.63,1.92,1.7,3.97-.87,1.91-1.7,3.38-4.09,4.07-11.1,3.19-21.5.77-31.8-3.3-2.77-1.09-5.79-1.6-8.45-2.88-1.59-.77-2.7-2.53-4.03-3.85-1.23-1.21-2.29-2.71-3.73-3.58-6.21-3.74-10.78-8.89-13.53-15.53-.63-1.53-.4-3.52-.22-5.26.66-6.32,1.58-12.61,2.16-18.94.25-2.68-.75-5.01-2.2-7.49-1.58-2.71-3.02-5.73-2.64-9.52.95-9.66,1.4-19.4,1.45-29.11.02-3.73-1.11-7.66-2.53-11.16-4.87-11.96-10.06-23.8-15.23-35.63-.84-1.93-2.37-3.56-3.25-5.49-.85-1.87-1.27-3.93-1.96-6.19-1.17.78-2.75,1.67-4.14,2.8-2.96,2.4-5.52,5.49-8.81,7.24-3.8,2.02-7.69,4.77-12.54,3.53-.63-.16-1.31-.17-1.93.01-4.59,1.35-8.04-1.1-11.66-3.24-1.52-.9-3.32-1.41-5.06-1.87-5.28-1.43-10.66-2.97-16.13-2.1-5.69.9-11.14-.38-16.68-.9-5.6-.52-10.78.25-15.31,3.77,2.15,1.18,4.27,2.21,6.24,3.45,1.24.78,3,2.37,3.85,3.55l3.82,4.1c-.18.7,10.45,8.98,10.85,9.53,5.69,7.7,5.84,16.7,5.22,25.5-.78,11.18-2.6,22.28-4.07,33.41-.38,2.88.58,6.07-1.81,8.55-.31.32-.41,1.12-.67,1.15-4.33.55-4.47,4.71-6.05,7.38-3.7,6.25-6.91,12.8-10.17,19.31-3.44,6.86-7.39,13.57-9.87,20.78-2.86,8.28-4.43,17.02-6.4,25.6-.74,3.23.18,4.03,3.34,3.33,1.8-.4,3.53-1.1,5.32-1.58,1.17-.31,2.38-.65,3.57-.62,3.13.08,3.25.11,4.9-1.73,2.78,0,5.34.58,7.46-.13,3.72-1.25,7.03-.11,10.35.89.66.2,1.24,2.39,1.02,3.5-.61,3.13-3.34,4.08-6.02,4.75-1.5.38-3.12.3-4.64.64-.62.14-1.12.82-1.67,1.25.49.59.86,1.43,1.49,1.72,1.51.69,3.29.85,4.68,1.7,3.01,1.83,5.89,3.88,8.72,5.98,1.25.92.83,4.04-.89,5.23-1.81,1.25-3.85,2.4-5.96,2.95-6.48,1.68-13.02,1.83-19.76,1.24-7.67-.67-12.32-6.01-18.01-9.81-1.93-1.29-3.59-2.97-5.49-4.29-.6-.42-1.63-.49-2.4-.37-4.41.68-7.5-1.6-7.99-5.98-.6-5.43,1.08-10.42,3.1-15.29,2.27-5.45,4.83-10.77,7.2-16.18.71-1.63,1.44-3.3,1.78-5.03,2.27-11.48,6.64-22.17,11.38-32.82,3.57-8.03,6.03-16.55,9.05-24.82,2.15-5.88,4.42-11.71,6.6-17.57.52-1.4.81-4.71,1.49-6l1.21-12.19c-.43-1.66-1.65-9.46-3.19-10.2l-9.22-12.08c.25-3.41-14.19-16.22-17.62-17.07-.33-.08-.81-.13-1.03.04l-9.86.32c-2.99,2.62-6.61.44-9.93,1.26-2.7.66-5.89.22-8.66-.5-3.54-.93-6.3-.2-9.13,1.92-2.38,1.79-4.92,3.53-7.66,4.61-4.79,1.89-10.76-1.03-12.62-5.92-.89-2.34-1.48-4.82-2.04-7.27-.14-.63.35-1.41.01-1.88-.93-2.13-1.9-4.24-2.78-6.38-.24-.59-.18-1.29-.34-1.93-1.23-4.84-2.96-5.56-7.49-3.01,1.29,3.6-.08,6.39-2.8,8.85-1.86,1.68-4.2,3.25-2.84,6.48.23.55-.2,1.45-.47,2.13-1.27,3.28-2.19,6.77-3.99,9.73-2.18,3.59-4.46,7.49-9.04,8.6-4.2,1.02-8.49-1.51-9.91-5.62-.67-1.93-1.19-3.91-1.86-6.14-4.35.1-8.23,1.8-10.68,5.67-2.95,4.67-7.11,6.36-12.35,6.31-3.24-.03-4.4,1.26-3.73,4.53.89,4.37,2.28,8.64,3.12,13.02.63,3.26.91,6.63,1,9.95.1,3.82-.46,7.67-.26,11.48.27,5.03-1.23,9.23-4.87,12.6-8.5,7.89-17,15.78-25.63,23.52-10.88,9.76-21.98,19.25-32.81,29.07-7.12,6.46-12.9,14.06-17.04,22.78-1.21,2.55-1.33,5.67-2.72,8.08-2.4,4.16-6.07,6.83-11.2,6.88-3.51.04-5.89-1.51-7.79-4.48-2.64-4.14-5.2-8.17-5.02-13.37.09-2.57.78-4.68,2.62-6.58,1.48-1.53,2.62-3.39,3.84-5.16,1.33-1.93,2.44-4.02,3.86-5.88,3.35-4.4,7.11-8.02,13.42-6.68.73.16,2.08-.57,2.49-1.26,3.58-6.15,9.69-9.59,14.87-14,4.77-4.06,9.97-7.63,14.68-11.76,8.55-7.47,16.88-15.17,25.29-22.81,1.67-1.51,3.11-3.29,4.86-4.69,3.67-2.94,4.82-6.73,5.61-11.32,1.35-7.84.19-15.27-1.39-22.8-.32-1.53-.44-3.1-.63-4.52-.44-.15-.66-.31-.78-.26-5.01,2.26-10.09,4.38-14.95,6.93-1.37.72-2.11,2.68-3.08,4.1-3.55,5.2-6.12,11.27-12.54,13.94-.63.26-1.3.4-1.98.44-2.4.12-4.86-.07-7.16.48-3.91.93-6.36-.88-8.76-3.47-1.89-2.05-4.26-3.72-5.85-5.96-.74-1.04-.65-3.24-.08-4.53.91-2.05.27-3.03-1.26-4.2-4.68-3.57-9.54-6.97-13.84-10.96-5.55-5.17-10.32-11.07-13.59-18.03-.35-.74-.78-1.74-1.42-2-3.58-1.44-4.22-5.37-6.66-7.63-4.49-4.15-3.67-9.57-3.77-14.57-.08-3.98,1.49-8.05,4.64-10.8,1.39-1.21,3.73-1.7,5.69-1.84,3.7-.25,6.15-2.17,7.8-5.16,2.38-4.32,4.97-8.63,6.6-13.25,1.28-3.62,1.36-7.7,1.73-11.6.17-1.87-2.75-11.84-4.18-10.28-2.36,2.56-11.2,1.02-13.03.21-5.47-2.42-2.28-2.55-7.87-4.6-3.23-1.18-7.93-1.26-11.44-1.48-5.89-.37-12.22,4.84-18.12,4.74-6.09-.1-12.2.29-18.27-.07-7.57-.44-15.12-1.34-22.67-2.18-7.45-.83-14.85-2.22-22.31-2.63-5.98-.33-11.93.8-17.55,3.29-2.71,1.2-5.55,2.25-8.43,2.9-1.92.43-4.08.28-6.05-.07-2.28-.41-4.5-1.25-6.69-2.06-2.91-1.07-2.41-3.93-2.99-6.18-.18-.7.09-1.54-.15-2.2-1.26-3.51-.75-5.53,2.19-7.61,2.73-1.93,5.48-3.86,8.31-5.64,4.43-2.78,14.06-2.05,18.21,1.01,1.08.79,5.35,4.49,6.65,4.29l25.73,2.54c5.58-.58,10.1-.06,15.65-.85,8.18-1.17,12-2.37,19.95-.42,10.97,2.69,27.93-4.4,38.61-.75,5.35,1.83,10.51,3.78,16.19,3.69,2.33-.03,4.51-.59,6.97.24,2.16.73,4.32-.16,5.93-2.56,1.31-1.97,3.62-3.37,5.7-4.69,1.8-1.14,3.92-1.78,5.86-2.71,1.72-.82,3.33-1.76,1.64-4.04,6.67-3.26,9.11-9.24,11.59-15.42,2.74-6.83,5.97-13.48,9.33-20.04,2.5-4.88,5.38-9.59,8.4-14.17,1.71-2.6,4.03-4.79,6.5-7.65l-13.3-2.56c-1.19-.52-13.66-4.92-14.9-5.24-4.9-1.29-9.93-2.15-14.71-3.79-4.73-1.62-8.11.68-11.24,3.22-5.55,4.52-10.74,9.49-16.11,14.24-4.14,3.66-8.17,7.46-12.53,10.84-7.66,5.94-11.42,5.92-20.92,9.02-4.76,5.27-7.11,4.12-13.03,6.52-3.68,1.49-11.38,1.55-15.26,2.54-4.61,1.18-9.35,3.86-13.98,4.93-.45.1-5.22,2.59-5.53-.66-.31-3.2.67-6.39,2.71-8.87l.66-.81c1.82-2.21,4.42-3.53,7.23-4.07,1.33-.26,2.6-.78,3.73-1.92.69-.7,1.98-.79,3.1-1.84-2.54-.75-5.05-1.74-7.64-2.2-4.89-.87-7.99-3.35-8.72-8.41-.3-2.08.43-3.86,2.55-3.92,4.35-.13,8.87-.43,13.05.5,6.66,1.48,13.11,3.81,18.81,7.9,1.25.9,3.53,1.17,5.05.73,3-.87,5.93-2.2,8.66-3.76,4.23-2.43,45.26-32.86,49.07-35.87l3.29-3.31c.79-.79,1.7-1.48,2.75-1.87,1.06-.39,2.36-1.53,3.55-1.97,2.1-.78,4.27-1.37,6.44-1.93,2.13-.55,3.87-.17,4.8,2.17.78,1.96,2.18,3,4.42,3.33,8.81,1.31,17.62,2.69,26.33,4.5,3.45.72,6.81,1.79,10.13,2.96,2.41.85,3.82.64,4.77-1.63,2.85-6.78,5.77-13.54,8.63-20.32.87-2.07,1.66-4.17,2.77-6.98l4.68-5.09c5.28-3.78,9.02-8.96,11.24-15.35,1.18-3.38,3.53-6.59,6.04-9.22,2.64-2.77,6.3-4.55,9.38-6.92.61-.47,1.18-1,1.73-1.55,2.89-2.87,5.67-5.86,8.67-8.62.69-.63,2.15-.34,3.07-.83,3.86-2.04,7.54-4.48,11.5-6.28,4.24-1.92,8.74-3.28,13.13-4.9.4-.15.76-.39,1.18-1.31l.82-1.05c-.2-.58-.26-.77-.46-1.35-3.83-1.07-7.61-2.66-11.78-.49-5.71,2.98-12.82,2.1-17.56-2.26-4.56-4.19-10.69-5.16-16.63-5.55-3.19-.21-12.95-1.52-14.64,2.61-3.63,2.26-6.15,6.14-9.53,8.37l-16.37,14.04c-3.22,1.26-6.86,1.88-8.66,5.47-.44.87-1.3,1.58-2.08,2.22-3.73,3.07-7.39,6.24-11.28,9.09-3.6,2.64-7.51,4.87-11.2,7.4-1.36.93-3.03,1.92-3.66,3.3-1.93,4.21-5.71,5.43-9.51,6.98-2.63,1.07-5,2.8-7.5,4.21-.8.45-1.58,1.01-2.45,1.27-4.85,1.46-9.56,3.08-13.42,6.65-2.32,2.14-5.14,1.49-6.52-1.35l-4.32-4.48c-.77-.77-1.46-1.64-2.33-2.28-1.2-.89-2.44-1.91-3.82-2.34-4.1-1.25-5.39-5.25-8.08-7.86-1.03-1-.75-2.2.75-2.53,1.43-.31,2.93-.38,4.4-.37,1.49.01,2.99.43,4.46.31.52-.04,1.39-1.16,1.36-1.74-.21-3.6,3.25-6.72,6.89-5.88,9.27,2.13,18.62,1.79,27.98.94,3.49-.32,4.89-2.04,5.35-5.6.1-.79.7-1.82,1.34-2.29,7.77-5.66,15.58-11.24,23.4-16.83,2.18-1.56,4.39-3.08,6.74-4.73l5.74-4.85c5.89-4.48,11.37-9.5,17.41-13.77,4.92-3.48,10.22-6.46,15.55-9.32,2.86-1.54,5.78-2.93,8.76-4.22,13.76-5.94,10.31-5.33,15.05-.68,2.03,1.99,3.85,3.04,6.59,3.5,8.6,1.46,17.12,3.35,25.7,4.89,9.68,1.74,19.39,3.26,29.09,4.91,1.66.28,3.53.36,4.88,1.21,5.33,3.33,9.67.27,13.62-2.35,10.07-6.67,20.43-12.58,32.27-15.47,1.26-.31,3.26-.97,4.43-1.53l52.63-8.8c3.47-1.05,7.13-1.44,10.7-2.17.77-.16,1.48-.55,2.22-.84-.37-.8-.55-1.82-1.15-2.35-1-.87-2.28-1.42-3.68-2.24-2.23-4.63-.05-14.34-5.73-15.37-2.18-.39-10.62,2.28-13.07-.36-1.1-1.18-2.38-2.16-3.95-2.5l-5.17-1.18c-6.92-1.59-23.18,12.88-29.85,14.19l-5.93,1.06c-.93-.28-67.57,7.61-68.46,7.23-3.39-1.43-18.94,5.27-18.71,1.45l2.98-5.03c.47.21,9.43-6.1,10.11-6.13,0,0,0,0,0,0-4.01-1.5-3.19-7.38,1.01-7.94l14.38-1.9c.77-.1,1.54.04,2.25.34,5.74,2.4,11.69,1.53,17.64,1.1,12.52-.9,25.09-1.4,37.56-2.78,16.84-1.86,23.59-15.94,40.36-18.41,2.27-.34,3.89,1.11,5.95-.24,1.59-1.05,4.27-1.83,6.46-1.38l12.71,2.75c9.79,5.06,19.09,6,29.71,9.17,9.67,2.88,19.46,5.36,29.18,8.09,6.13,1.72,12.23,3.57,18.33,5.4.51.15,3.92.19,4.02.58.92,3.44,3.95.28,6.57.64,7.38.99,11.08-.17,17.8-3.6,3.49-1.78,7.56.28,11.29-1.03,1.99-.7,4.12-.95,6.22-.66l14.27.2c.99.14,9.81,1.89,10.81,1.8,3.6-.33,6.78.54,9.93.24.84-.08,1.69-.4,2.51-.32,7.85.76,15.37-1.07,22.92-2.8,1.19-.27,2.64,0,3.83.42,2.46.89,4.6,1.62,7.49.71,1.37-.44,5.16,2,5.34,3.45.53,4.1,3.01,5.27,6.19,5.62,9.63,1.05,18.6,4.42,27.45,7.97,5.44,2.18,10.42,5.11,14.22,9.96,4.27,5.45,9.68,9.87,15.72,13.25,4.75,2.66,9.24,5.77,13.76,8.81,2.31,1.56,2.75,3.96,2.14,6.5-.7,2.93.57,4.84,2.53,6.92,5.87,6.24,10.27,13.45,13.07,21.59.52,1.5,1.36,2.88,1.83,4.39.82,2.62,1.76,5.26,2.1,7.96.45,3.59,1.95,6.29,5.03,8.14.16.09.36.2.43.35,2.72,5.78,7.56,10.98,5.01,18.18-.45,1.28-1,2.68-1.91,3.63-1.93,2.02-1.65,3.78-.38,6.03,1.15,2.04,2.22,4.37,2.43,6.66.43,4.77-3.29,6.83-6.87,8.52-1.93.91-3.01,1.94-3.79,4.03-1.68,4.52-3.55,8.96-7.24,12.45-1.31,1.24-1.58,3.54-2.48,5.27-1.04,2,.55,3.44.77,5.05.35,2.65-.35,5.71-1.46,8.22-1.05,2.37-3.2,4.26-4.74,6.2,1.97,1.69,4.65,2.89,4.4,6.14-.12,1.61,11.81,55.42,10.47,56.31l1.8,9.3ZM442.73,286.55c2.24,3.46,4.38,6.75,6.5,10.05,3.93,6.11,7.84,12.24,11.79,18.34,1.13,1.75,2.67,3.03,4.87,2.61,3.39-.64,6.83-1.23,10.09-2.32,5.38-1.79,10.67-3.89,15.94-6,4.92-1.97,9.79-4.04,14.62-6.23,2.09-.95,3.92-3.09,6.01-3.32,6.58-.71,13.24-1.11,18.85,3.81,1.6,1.4,3.69,2.13,6.11,1.57,3.73-.86,7.49-1.66,11.29-2.15,5.53-.71,10.98-1.69,16.17-3.77,1.67-.67,3.38-1.31,4.95-2.16,2.47-1.34,4.85-2.83,7.24-4.3,1.54-.95,2.99-2.06,4.55-2.98,1.85-1.09,3.71-2.74,5.69-2.94,5.36-.55,10.79-.66,16.19-.51,2.13.06,4.21,1.31,6.35,1.9,1.32.36,2.8.93,4.03.64,3.63-.85,7.27-1.81,10.72-3.21,5.01-2.03,9.92-4.33,14.74-6.78,3.03-1.54,5.77-3.67,8.74-5.35,2.52-1.42,5.5-2.19,7.7-3.96,2.69-2.16,5.19-1.73,7.76-.56,4.52,2.06,14.8-1.39,16.97-5.88.08-.17.12-.36.2-.53,2.13-4.77,5.19-8.26,10.36-10.33,8.16-3.26,15.68-7.87,22.33-13.66,1.72-1.5,4.14-4.29,5.26-6.28,4.36-7.72,4.08-16.05,2.09-24.22-1.44-5.9-3.97-11.44-8.2-16.06-3.8-4.14-7.11-8.8-12.6-10.99-.34-.13-.59-.46-.91-.66-4.76-2.88-9.55-5.71-14.26-8.66-1.63-1.02-3.06-2.36-4.86-3.78-.63.04-2.06.47-3.26.12-3.72-1.07-7.36-2.41-11.01-3.71-1.27-.45-2.44-1.46-3.72-1.6-3.63-.4-7.3-.41-10.94-.71-1.28-.11-2.63-.39-3.76-.97-3.31-1.72-6.73-1.67-10.1-.63-5.87,1.82-11.61,4.02-17.49,5.8-2.14.64-4.43,2.48-6.09.75-1.45.78-2.42,1.56-3.52,1.83-3.1.76-6.33,1.08-9.38,2.01-2.47.76-4.7,2.24-7.11,3.24-5.04,2.1-10.14,4.07-15.18,6.16-4.39,1.82-8.77,3.66-13.09,5.65-1.32.61-2.42,1.71-3.3,2.36-1.48.15-2.92.04-4.18.46-3.19,1.06-6.26,2.48-9.46,3.5-1.1.35-2.45-.17-3.66-.07-1.16.09-3.29.43-3.3.73-.1,2.19-1.86,2.09-3.05,2.26-3.97.57-7.37,2.61-11.06,3.88-.93.32-2.12-.03-3,.35-1.86.81-3.55,2.02-5.4,2.86-2.41,1.1-4.92,2-7.37,3.01-4.54,1.89-9.05,3.87-13.62,5.69-2.07.82-4.12,1.69-6.09,2.73-4.92,2.61-9.7,5.47-14.58,8.16-.64.35-1.64.1-2.24.48-1.38.88-2.49,2.24-3.93,2.94-4.67,2.25-9.39,4.29-13.12,8.13-6.59,6.78-13.37,13.33-16.26,22.79-.9,2.95-2.78,5.59-3.93,8.49-2.16,5.47-1.46,10.78,1.58,15.76.91,1.49,2.14,2.79,3.09,4l.24,2.18ZM330.74,366.38c1.72-.53,3.42-1.1,5.15-1.59,3.55-1.02,7.27-1.09,10.81-2.43,4.69-1.78,9.64-2.91,14.51-4.17,1.21-.31,2.57-.05,3.89-.05.62-.57,1.24-1.56,2.12-1.9,4.33-1.69,8.77-3.11,13.1-4.81,3.46-1.36,6.91-2.8,10.2-4.51,4.85-2.51,9.35-5.58,14.86-6.87,3.37-.79,6.44-2.89,9.63-4.42.3-.14.55-.36.73-.63,2.9-4.44,4.04-9.37,3.18-14.53-1.91-11.43-5.77-22.07-12.56-31.9-5.21-7.53-9.97-15.37-13.87-23.65-4.25-9.03-8.65-17.23-15.87-23.62-6.22-5.5-12.04-11.5-18.55-16.63-6.44-5.07-13.08-10.3-20.46-13.66-6.56-2.98-14.24-3.51-21.44-5.08-.38-.08-.85.21-1.28.35-1.96.64-3.88,1.69-5.88,1.85-2.86.23-5.02,1.28-6.73,3.52-.27.36-.58.7-.97.92-1.44.84-3.2,1.28-4.4,2.36-3.05,2.77-6.01,5.66-8.75,8.73-3.53,3.95-6.95,8-10.3,12.11-2.84,3.5-7.23,9.43-9.85,13.11-3.01,4.23-6.13,8.4-8.85,12.81-2.87,4.66-5.36,9.56-7.94,14.4-1.85,3.47-3.67,6.95-5.42,10.46-2.36,4.74-4.9,9.4-7.14,14.2-.81,1.75-1.28,3.67-1.78,5.55-.36,1.34-.48,2.75-.74,4.12-.99,5.11-2.16,10.19-.96,15.47.37,1.61.06,3.38.06,4.5.8,1.12,1.68,1.86,1.93,2.77,1.73,6.42,5.19,11.55,10.24,15.96,4.5,3.92,8.23,8.71,13.78,11.38,1.84.88,3.93,1.54,5.39,2.87,4.28,3.88,9.55,4.11,14.76,4.29,5.41.19,10.88-.52,16.26-.12,9.9.73,19.75,1.83,29.56-.77.83-.22,1.85.31,2.78.49l.76-.89ZM509,143.88c-2.57,2.71-8.43,3.4-11.79,1.44-1.3-.76-2.62-1.91-4-2.03-4.78-.4-5.79,3.55-11.56,6.02-2.47,1.06-4.21,3.63-6.78,3.6-1.74-.02-3.33-.46-4.66,1.27-.49.64-1.81,1.76-5.93,1.06-1.72-.29-3.58-.92-5.3-.64l-5.93,2.54c-4.5,2.32-9.95,1.05-14.7,2-5,.99-10.19.47-15.16,2.41-3.67,1.42-7.77,1.7-11.65,2.63-1.53.36-3.37.69-4.39,1.72-2.76,2.77-6.51,3.81-9.6,6.04-4.8,3.46-10.21,6.1-15.45,8.91-2.57,1.38-5.27,3.12-8.04,3.36-4.89.43-9.87-.19-14.82-.3-.91-.02-1.83.24-2.75.38.3,1.02.31,2.29.95,3.02,1.59,1.82,3.38,3.49,5.23,5.06,4.77,4.07,9.41,8.36,14.49,12.01,5.8,4.16,12.8,5.67,19.6,7.47,1.39.37,2.97.52,4.37.26,5.61-1.04,11.22-2.12,16.77-3.48,10.06-2.45,20.07-5.14,30.12-7.66,3.67-.92,7.45-1.47,11.08-2.51,6.27-1.8,12.46-3.89,18.71-5.8,5.8-1.77,11.68-3.31,17.44-5.21,3.93-1.3,7.65-3.22,11.57-4.55,4.34-1.47,8.86-2.42,13.2-3.89,6.45-2.18,12.77-4.72,19.21-6.94,6.01-2.07,12.17-3.71,18.13-5.9,11.13-4.09,22.15-8.49,33.26-12.65,2.44-.91,5.33-.85,7.56-2.06,6.39-3.47,12.54-7.39,18.82-11.09,1.44-.85,3-1.5,4.51-2.22,3.04-1.45,6.13-2.8,9.11-4.36,1.75-.91,1.47-2-.25-2.74-.59-.25-1.25-.47-1.88-.5-5.68-.25-11.38-.83-17.04-.55-6.14.3-12.25,1.37-18.37,2.17-6.36.83-12.71,1.76-19.07,2.61-3.05.41-6.33-.08-9.16,1.13-3.09,1.32-6.47.78-9.62,1.53-2.43.58-4.68,1.84-7.09,2.55-.7.21-1.66-.43-2.73-.75-1.21.86-2.74,2.2-3.77-.68-5.29,2.28-10.47-1.56-15.67.73-4.81,2.12-10.09,3.19-15.47,4.82l-1.48-.25ZM255.51,391.78c-2.14-4-3.32-7.35-6.96-8.71-.59-.22-1.38-1.07-1.36-1.61.07-3.14-2.09-4.74-4.07-6.41-2.11-1.78-4.24-3.54-6.45-5.19-4.54-3.41-9.07-6.84-13.72-10.11-2.1-1.47-7.23-.93-9.1.78-.41.37-.62,1.18-.55,1.73.46,3.5-.03,6.89-.38,10.39-.56,5.58-4.19,8.8-7.64,12.27-1.72,1.73-3.91,2.5-6.47,1.63-.74-.25-1.66.04-2.5.01-1.87-.06-3.81.1-5.6-.32-2.94-.7-5.87.45-6.66,3.34-.5,1.84-.2,3.88-.61,5.76-.93,4.19-1.92,8.22-4.05,12.2-2.77,5.17-5.97,9.72-9.97,13.93-1.91,2.01-4.07,4.75-4.2,7.26-.17,3.23,1.04,6.85,2.64,9.77,1.75,3.19,4.7,5.7,6.96,8.63,3.12,4.05,6.19,8.15,9.09,12.35,3.24,4.69,6.4,5.85,11.71,4.02,5.92-2.04,10.52-6.03,15.1-10.05,3.64-3.2,6.99-6.79,10.87-9.65,2.33-1.72,5.42-2.46,8.22-3.52,1.71-.65,2-1.63,1.82-3.44-1.24-12.45-6.97-23.45-11.35-34.85-2.12-5.51.66-12.13,5.98-12.06,5.52.07,11.05.49,16.56.84,4.01.25,8.01.64,12.7,1.02Z"/>
</svg>